<svg width="78" height="90" viewBox="0 0 78 90" fill="none" xmlns="http://www.w3.org/2000/svg" xmlns:xlink="http://www.w3.org/1999/xlink">
<path d="M77.277,36.845C77.277,65.068 38.961,89.259 38.961,89.259C38.961,89.259 0.646,65.068 0.646,36.845C0.646,16.804 17.8,0.558 38.961,0.558C60.122,0.558 77.277,16.804 77.277,36.845L77.277,36.845Z" clip-rule="evenodd" fill-rule="evenodd" transform="rotate(-1.685 38.961 44.909)" fill="#D3383B" stroke="#D3383B" stroke-width="2" stroke-miterlimit="3.999327" stroke-linecap="round" stroke-linejoin="round"/>
<path d="M38.841,48.941C45.894,48.941 51.613,43.526 51.613,36.846C51.613,30.165 45.894,24.75 38.841,24.75C31.787,24.75 26.069,30.165 26.069,36.846C26.069,43.526 31.787,48.941 38.841,48.941Z" clip-rule="evenodd" fill-rule="evenodd" transform="rotate(-1.685 38.841 36.846)" fill="#FFFFFF" stroke="#FFFFFF" stroke-width="2" stroke-miterlimit="3.999327" stroke-linecap="round" stroke-linejoin="round"/>
</svg>
