<svg width="126" height="124" viewBox="0 0 126 124" fill="none" xmlns="http://www.w3.org/2000/svg" xmlns:xlink="http://www.w3.org/1999/xlink">
<path d="M62.639,110.35C90.927,110.35 113.859,88.632 113.859,61.842C113.859,35.051 90.927,13.333 62.639,13.333C34.35,13.333 11.418,35.051 11.418,61.842C11.418,88.632 34.35,110.35 62.639,110.35Z" clip-rule="evenodd" fill-rule="evenodd" transform="rotate(-32.904 62.639 61.842)" fill="#EB4144"/>
<path d="M64.436,90.476C80.601,90.476 93.705,78.065 93.705,62.757C93.705,47.448 80.601,35.038 64.436,35.038C48.272,35.038 35.168,47.448 35.168,62.757C35.168,78.065 48.272,90.476 64.436,90.476Z" clip-rule="evenodd" fill-rule="evenodd" transform="rotate(-32.904 64.436 62.757)" fill="#EB4144" stroke="#000000" stroke-width="1" stroke-miterlimit="3.999327"/>
<path d="M64.433,73.844C70.899,73.844 76.14,68.88 76.14,62.756C76.14,56.633 70.899,51.669 64.433,51.669C57.967,51.669 52.725,56.633 52.725,62.756C52.725,68.88 57.967,73.844 64.433,73.844Z" clip-rule="evenodd" fill-rule="evenodd" transform="rotate(-32.904 64.433 62.756)" fill="#000000"/>
</svg>
