<svg width="244" height="242" viewBox="0 0 244 242" fill="none" xmlns="http://www.w3.org/2000/svg" xmlns:xlink="http://www.w3.org/1999/xlink">
<path d="M213.756,241.7C230.324,241.7 243.946,228.218 241.914,211.776C239.226,190.007 233.608,168.655 225.178,148.306C212.914,118.697 194.938,91.793 172.274,69.131C149.612,46.468 122.708,28.492 93.098,16.227C72.75,7.799 51.396,2.181 29.628,-0.508C13.184,-2.54 -0.296,11.082 -0.296,27.65L-0.296,43.749C-0.296,60.317 13.24,73.477 29.544,76.421C41.322,78.547 52.866,81.932 63.976,86.533C84.354,94.974 102.868,107.345 118.464,122.941C134.06,138.536 146.432,157.051 154.872,177.428C159.474,188.537 162.858,200.082 164.984,211.86C167.928,228.164 181.088,241.7 197.656,241.7L213.756,241.7Z" transform="rotate(-0.777 -0.297 241.7)" fill="#25C8A8"/>
</svg>
