<svg width="28" height="28" viewBox="0 0 28 28" fill="none" xmlns="http://www.w3.org/2000/svg" xmlns:xlink="http://www.w3.org/1999/xlink">
<path d="M26.32,14.292C26.32,13.382 26.238,12.507 26.087,11.667L14,11.667L14,16.631L20.907,16.631C20.609,18.235 19.705,19.594 18.346,20.504L18.346,23.724L22.493,23.724C24.92,21.49 26.32,18.2 26.32,14.292L26.32,14.292Z" fill="#4285F4"/>
<path d="M14,26.833C17.465,26.833 20.37,25.684 22.493,23.724L18.345,20.504C17.196,21.274 15.726,21.729 14,21.729C10.657,21.729 7.828,19.472 6.819,16.438L2.531,16.438L2.531,19.763C4.643,23.958 8.983,26.833 14,26.833Z" fill="#34A853"/>
<path d="M6.819,16.438C6.563,15.668 6.417,14.846 6.417,14C6.417,13.154 6.563,12.332 6.819,11.562L6.819,8.237L2.532,8.237C1.663,9.969 1.167,11.929 1.167,14C1.167,16.071 1.663,18.031 2.532,19.763L6.819,16.438L6.819,16.438Z" fill="#FBBC05"/>
<path d="M14,6.271C15.884,6.271 17.575,6.918 18.905,8.19L22.586,4.509C20.364,2.438 17.459,1.167 14,1.167C8.983,1.167 4.643,4.042 2.531,8.237L6.819,11.562C7.828,8.528 10.657,6.271 14,6.271Z" fill="#EA4335"/>
</svg>
