<svg width="40" height="26" viewBox="0 0 40 26" fill="none" xmlns="http://www.w3.org/2000/svg" xmlns:xlink="http://www.w3.org/1999/xlink">
<path d="M8.961,20.642L-0.761,19.897L-0.761,16.124L7.522,16.758L8.42,5.035L18.044,6.498L20.299,13.764L19.762,20.77C19.71,21.446 18.983,21.456 18.983,21.456L18.197,21.377C18.197,21.377 18.141,16.807 13.874,16.48C9.269,16.128 8.961,20.642 8.961,20.642ZM11.725,12.382L18.948,13.661L17.332,8.151L12.112,7.327L11.725,12.382Z" clip-rule="evenodd" fill-rule="evenodd" transform="rotate(0.577 9.769 13.245)" fill="#000000"/>
<path d="M5.931,15.658L-0.736,15.148L-0.736,0.715L7.03,1.309L5.931,15.658Z" transform="rotate(0.577 3.147 8.186)" fill="#000000"/>
<path d="M39.241,7.87L30.155,9.21L22.524,16.081L23.353,21.706L26.098,23.217C25.697,22.715 25.42,22.102 25.319,21.416C25.022,19.404 26.426,17.515 28.438,17.219C30.45,16.922 32.339,18.326 32.636,20.338C32.737,21.024 32.648,21.691 32.409,22.287L39.241,21.28L39.241,12.683L36.474,13.091L35.921,9.341L39.241,8.852L39.241,7.87ZM35.006,9.476L35.559,13.225L28.059,14.331L31.256,10.028L35.006,9.476Z" clip-rule="evenodd" fill-rule="evenodd" transform="rotate(0.577 30.882 15.544)" fill="#000000"/>
<path d="M26.207,21.272C25.985,19.763 27.031,18.3 28.585,18.071C30.14,17.842 31.564,18.94 31.786,20.449C32.008,21.959 30.962,23.421 29.408,23.65C27.899,23.873 26.429,22.781 26.207,21.272ZM30.323,20.665C30.215,19.933 29.533,19.427 28.801,19.534C28.069,19.642 27.563,20.324 27.67,21.056C27.778,21.788 28.46,22.295 29.192,22.187C29.924,22.079 30.431,21.397 30.323,20.665Z" clip-rule="evenodd" fill-rule="evenodd" transform="rotate(0.577 28.997 20.86)" fill="#000000"/>
<path d="M13.206,24.77C11.155,24.613 9.619,22.823 9.776,20.772C9.933,18.721 11.723,17.185 13.774,17.342C15.826,17.5 17.361,19.29 17.204,21.341C17.047,23.392 15.257,24.927 13.206,24.77ZM15.256,21.192C15.181,22.167 14.329,22.898 13.353,22.823C12.378,22.748 11.647,21.897 11.722,20.921C11.797,19.945 12.648,19.215 13.624,19.289C14.6,19.364 15.33,20.216 15.256,21.192Z" clip-rule="evenodd" fill-rule="evenodd" transform="rotate(0.577 13.49 21.056)" fill="#000000"/>
<path d="M26.668,3.439L23.957,7.008C23.697,7.351 23.153,7.221 23.074,6.798L22.598,4.228L22.42,7.9C22.398,8.352 21.833,8.541 21.543,8.194L20.072,6.428L21.247,9.786C21.299,9.935 21.221,10.098 21.072,10.15C20.923,10.203 20.76,10.124 20.708,9.975L19.395,6.224C19.212,5.702 19.891,5.318 20.244,5.742L21.859,7.68L22.059,3.553C22.087,2.964 22.935,2.907 23.042,3.487L23.605,6.526L26.466,2.76C26.801,2.319 27.497,2.674 27.337,3.204L26.284,6.686L28.725,5.553C29.211,5.328 29.66,5.927 29.308,6.33L26.041,10.069C25.937,10.188 25.757,10.2 25.638,10.096C25.519,9.992 25.507,9.812 25.611,9.693L28.644,6.221L26.372,7.275C25.983,7.456 25.564,7.092 25.688,6.681L26.668,3.439Z" transform="rotate(0.577 24.399 6.364)" fill="#000000"/>
</svg>
