<svg width="28" height="32" viewBox="0 0 28 32" fill="none" xmlns="http://www.w3.org/2000/svg" xmlns:xlink="http://www.w3.org/1999/xlink">
<path d="M13.112,16.27C13.963,15.265 15.25,14.395 16.615,13.498C18.681,12.145 21.025,10.562 22.138,8.196C24.013,4.213 27.013,3.242 27.145,3.201L27.171,3.201C27.018,2.071 26.541,1.01 25.798,0.145L8.455,17.488L10.873,19.911C11.046,19.341 11.56,18.107 13.112,16.27Z" transform="rotate(0.577 17.813 10.028)" fill="#000000"/>
<path d="M22.462,8.36C21.307,10.824 18.907,12.418 16.807,13.82C15.464,14.717 14.2,15.557 13.383,16.52C11.62,18.605 11.242,19.895 11.167,20.225L13.042,22.1L22.154,13.029C22.154,13.029 27.532,8.338 27.198,3.583C26.83,3.714 24.157,4.787 22.462,8.36Z" transform="rotate(0.577 19.19 12.842)" fill="#000000"/>
<path d="M11.197,23.859L6.573,19.236L1.323,24.486C1.019,24.789 0.777,25.15 0.612,25.548C0.447,25.945 0.362,26.371 0.362,26.801C0.362,27.232 0.447,27.658 0.612,28.055C0.777,28.452 1.019,28.813 1.323,29.117C1.628,29.422 1.989,29.664 2.386,29.829C2.784,29.993 3.21,30.078 3.641,30.078C4.071,30.078 4.498,29.993 4.895,29.829C5.293,29.664 5.654,29.422 5.958,29.117L11.197,23.859Z" transform="rotate(0.577 5.78 24.657)" fill="#000000"/>
<path d="M25.836,21.935C30.193,21.935 25.836,14.529 25.836,14.529C25.836,14.529 21.474,21.935 25.836,21.935Z" transform="rotate(0.577 25.835 18.232)" fill="#000000"/>
<path d="M19.629,22.748C19.629,22.748 15.272,30.154 19.629,30.154C23.987,30.154 19.629,22.748 19.629,22.748Z" transform="rotate(0.577 19.629 26.451)" fill="#000000"/>
<path d="M10.71,15.402L8.906,15.402L8.906,25.924L10.71,25.924L10.71,15.402Z" transform="rotate(-89.423 9.808 20.663)" fill="#000000"/>
</svg>
