<svg width="36" height="32" viewBox="0 0 36 32" fill="none" xmlns="http://www.w3.org/2000/svg" xmlns:xlink="http://www.w3.org/1999/xlink">
<path d="M13.588,7.547C13.766,8.26 13.873,9.08 13.944,10.042C13.98,10.577 13.909,11.289 13.802,12.074C13.552,14.141 13.231,16.707 15.049,17.491C15.263,17.598 15.406,17.812 15.37,18.061L14.8,22.659C15.905,22.873 16.617,23.301 17.116,23.586C17.508,23.835 17.508,23.835 17.829,23.835C18.114,23.835 18.15,23.835 18.542,23.586C19.005,23.301 19.718,22.873 20.788,22.659L21.251,18.774C21.287,18.56 21.393,18.418 21.607,18.347C24.316,17.313 25.884,14.39 26.954,12.43L28.023,10.434C28.13,10.22 28.165,9.935 28.059,9.721C27.952,9.507 27.773,9.329 27.524,9.258C27.203,9.151 26.847,9.293 26.633,9.543L25.35,11.218C24.993,11.681 24.566,12.074 24.067,12.394C23.96,12.466 23.853,12.501 23.71,12.466C21.215,12.216 20.396,14.675 20.36,14.782C20.289,15.067 19.968,15.246 19.683,15.139C19.398,15.067 19.219,14.747 19.326,14.462C19.647,13.357 20.93,11.396 23.318,11.361L25.991,3.626C26.134,3.234 25.92,2.771 25.492,2.628C25.1,2.486 24.673,2.7 24.494,3.092L22.427,8.581C22.32,8.83 22.071,8.973 21.786,8.901C21.536,8.83 21.358,8.581 21.393,8.295L22.178,1.702C22.249,1.274 21.928,0.882 21.5,0.811C21.073,0.775 20.681,1.06 20.645,1.452L19.576,8.224C19.54,8.509 19.291,8.688 19.041,8.688C18.756,8.688 18.542,8.474 18.506,8.189L18.043,2.45C18.043,2.236 17.936,2.058 17.758,1.916C17.615,1.773 17.402,1.702 17.152,1.737C16.724,1.773 16.404,2.129 16.439,2.557L16.617,8.367C16.617,8.652 16.439,8.866 16.154,8.901C15.869,8.937 15.619,8.759 15.548,8.509L14.408,4.197C14.301,3.805 13.873,3.555 13.445,3.662C13.231,3.698 13.053,3.84 12.946,4.018C12.839,4.197 12.804,4.41 12.839,4.624L13.588,7.547Z" transform="rotate(0.577 20.475 12.322)" fill="#000000"/>
<path d="M2.042,27.386C2.684,27.244 3.112,26.959 3.468,26.745C3.932,26.46 4.288,26.246 5.072,26.246C5.856,26.246 6.213,26.46 6.676,26.745C7.246,27.101 7.959,27.529 9.278,27.529C10.597,27.529 11.309,27.101 11.88,26.745C12.379,26.46 12.699,26.246 13.484,26.246C14.268,26.246 14.624,26.46 15.088,26.745C15.658,27.101 16.371,27.529 17.689,27.529C19.008,27.529 19.721,27.101 20.291,26.745C20.79,26.46 21.111,26.246 21.895,26.246C22.679,26.246 23.036,26.46 23.499,26.745C24.069,27.101 24.782,27.529 26.101,27.529C27.42,27.529 28.133,27.101 28.703,26.745C29.166,26.46 29.523,26.246 30.307,26.246C31.091,26.246 31.447,26.46 31.911,26.745C32.267,26.959 32.695,27.208 33.301,27.386C33.907,27.529 34.512,27.101 34.512,26.46C34.512,26.032 34.192,25.64 33.764,25.533C33.443,25.462 33.194,25.283 32.873,25.105C32.303,24.749 31.59,24.321 30.271,24.321C28.952,24.321 28.239,24.749 27.669,25.105C27.206,25.39 26.849,25.604 26.065,25.604C25.281,25.604 24.925,25.39 24.461,25.105C23.891,24.749 23.178,24.321 21.86,24.321C20.541,24.321 19.828,24.749 19.258,25.105C18.794,25.39 18.438,25.604 17.654,25.604C16.87,25.604 16.513,25.39 16.05,25.105C15.48,24.749 14.767,24.321 13.448,24.321C12.129,24.321 11.416,24.749 10.846,25.105C10.347,25.39 10.026,25.604 9.242,25.604C8.458,25.604 8.102,25.39 7.638,25.105C7.068,24.749 6.355,24.321 5.036,24.321C3.718,24.321 3.005,24.749 2.435,25.105C2.149,25.283 1.9,25.426 1.579,25.497C1.223,25.604 0.902,25.889 0.831,26.246C0.759,26.959 1.401,27.529 2.042,27.386Z" transform="rotate(0.577 17.669 25.925)" fill="#000000"/>
<path d="M33.956,29.809C33.635,29.738 33.386,29.56 33.065,29.381C32.495,29.025 31.782,28.597 30.463,28.597C29.145,28.597 28.432,29.025 27.861,29.381C27.362,29.666 27.042,29.88 26.222,29.88C25.438,29.88 25.081,29.666 24.618,29.381C24.048,29.025 23.335,28.597 22.016,28.597C20.697,28.597 19.985,29.025 19.414,29.381C18.915,29.666 18.559,29.88 17.775,29.88C16.991,29.88 16.634,29.666 16.171,29.381C15.601,29.025 14.888,28.597 13.569,28.597C12.25,28.597 11.537,29.025 10.967,29.381C10.468,29.666 10.147,29.88 9.363,29.88C8.579,29.88 8.223,29.666 7.759,29.381C7.189,29.025 6.476,28.597 5.157,28.597C3.839,28.597 3.126,29.025 2.556,29.381C2.27,29.56 2.021,29.702 1.7,29.809C1.344,29.916 1.023,30.201 0.952,30.558C0.809,31.27 1.451,31.841 2.128,31.662C2.769,31.52 3.197,31.235 3.554,31.021C4.017,30.736 4.373,30.522 5.157,30.522C5.942,30.522 6.298,30.736 6.761,31.021C7.332,31.377 8.044,31.805 9.363,31.805C10.682,31.805 11.395,31.377 11.965,31.021C12.464,30.736 12.785,30.522 13.569,30.522C14.353,30.522 14.71,30.736 15.173,31.021C15.743,31.377 16.456,31.805 17.775,31.805C19.094,31.805 19.806,31.377 20.377,31.021C20.876,30.736 21.196,30.522 21.981,30.522C22.765,30.522 23.121,30.736 23.584,31.021C24.155,31.377 24.868,31.805 26.186,31.805C27.505,31.805 28.218,31.377 28.788,31.021C29.252,30.736 29.608,30.522 30.392,30.522C31.176,30.522 31.533,30.736 31.996,31.021C32.352,31.235 32.78,31.484 33.386,31.662C33.992,31.805 34.598,31.377 34.598,30.736C34.705,30.272 34.384,29.916 33.956,29.809Z" transform="rotate(0.577 17.775 30.201)" fill="#000000"/>
</svg>
