<svg width="40" height="40" viewBox="0 0 40 40" fill="none" xmlns="http://www.w3.org/2000/svg" xmlns:xlink="http://www.w3.org/1999/xlink">
<path d="M40,37.792C40,39.012 39.011,40 37.792,40L2.208,40C0.988,40 0,39.012 0,37.792L0,2.208C0,0.988 0.988,0 2.208,0L37.792,0C39.011,0 40,0.988 40,2.208L40,37.792ZM27.599,24.51L27.599,40L21.365,40L21.365,24.51L16.152,24.51L16.152,18.473L21.365,18.473L21.365,14.021C21.365,8.855 24.521,6.041 29.13,6.041C31.337,6.041 33.235,6.206 33.788,6.279L33.788,11.679L30.591,11.68C28.085,11.68 27.599,12.871 27.599,14.619L27.599,18.473L33.577,18.473L32.799,24.51L27.599,24.51Z" clip-rule="evenodd" fill-rule="evenodd" fill="#365899"/>
</svg>
