<svg width="200" height="194" viewBox="0 0 200 194" fill="none" xmlns="http://www.w3.org/2000/svg" xmlns:xlink="http://www.w3.org/1999/xlink">
<g opacity="0.595" style="isolation:isolate">
<path d="M100,194C155.228,194 200,150.572 200,97C200,43.428 155.228,0 100,0C44.772,0 0,43.428 0,97C0,150.572 44.772,194 100,194Z" clip-rule="evenodd" fill-rule="evenodd" fill="#B795FF"/>
</g>
<path d="M100,132.984C120.488,132.984 137.097,116.873 137.097,97C137.097,77.127 120.488,61.016 100,61.016C79.512,61.016 62.903,77.127 62.903,97C62.903,116.873 79.512,132.984 100,132.984Z" clip-rule="evenodd" fill-rule="evenodd" fill="#6938D3"/>
<path d="M100,109.516C107.126,109.516 112.903,103.912 112.903,97C112.903,90.088 107.126,84.484 100,84.484C92.874,84.484 87.097,90.088 87.097,97C87.097,103.912 92.874,109.516 100,109.516Z" clip-rule="evenodd" fill-rule="evenodd" fill="#FFFFFF"/>
</svg>
