<svg width="572" height="504" viewBox="0 0 572 504" fill="none" xmlns="http://www.w3.org/2000/svg" xmlns:xlink="http://www.w3.org/1999/xlink">
<path d="M464.414,6.609L461.172,4.268L464.414,6.609ZM473.388,3.687L472.146,7.489L473.388,3.687ZM241.072,302.267L238.702,305.489L238.702,305.489L241.072,302.267ZM157.839,249.805L160.759,252.539L157.839,249.805ZM168.419,248.829L166.049,252.051L168.419,248.829ZM128.183,281.485L125.263,278.753L128.183,281.485ZM186.487,357.021L183.557,354.297L186.487,357.021ZM45.85,498.595L48.007,495.227L45.85,498.595ZM56.023,497.307L53.094,494.583L56.023,497.307ZM-0.44,473.691L43.692,501.963L48.007,495.227L3.876,466.955L-0.44,473.691ZM58.953,500.031L189.416,359.745L183.557,354.297L53.094,494.583L58.953,500.031ZM188.753,342.741L131.315,289.897L125.898,295.785L183.337,348.629L188.753,342.741ZM131.103,284.219L160.759,252.539L154.919,247.073L125.263,278.753L131.103,284.219ZM166.049,252.051L238.702,305.489L243.442,299.045L170.79,245.607L166.049,252.051ZM255.542,302.847L467.658,8.95L461.172,4.268L249.056,298.165L255.542,302.847ZM472.146,7.489L568.286,38.935L570.772,31.332L474.632,-0.114L472.146,7.489ZM467.658,8.95C468.676,7.539 470.492,6.948 472.146,7.489L474.632,-0.114C469.67,-1.738 464.228,0.034 461.172,4.268L467.658,8.95ZM238.702,305.489C244.074,309.441 251.638,308.255 255.542,302.847L249.056,298.165C247.754,299.967 245.232,300.363 243.442,299.045L238.702,305.489ZM160.759,252.539C162.144,251.059 164.417,250.849 166.049,252.051L170.79,245.607C165.892,242.003 159.074,242.633 154.919,247.073L160.759,252.539ZM131.315,289.897C129.679,288.391 129.584,285.843 131.103,284.219L125.263,278.753C120.706,283.621 120.991,291.269 125.898,295.785L131.315,289.897ZM189.416,359.745C193.946,354.873 193.649,347.245 188.753,342.741L183.337,348.629C184.968,350.131 185.068,352.673 183.557,354.297L189.416,359.745ZM43.692,501.963C48.577,505.093 55.002,504.281 58.953,500.031L53.094,494.583C51.777,495.999 49.636,496.271 48.007,495.227L43.692,501.963Z" transform="rotate(-32.904 285.624 252.035)" fill="#6938D3"/>
</svg>
