<svg width="38" height="32" viewBox="0 0 38 32" fill="none" xmlns="http://www.w3.org/2000/svg" xmlns:xlink="http://www.w3.org/1999/xlink">
<path d="M19.26,5.219C25.577,5.219 31.21,8.769 33.96,14.386C32.977,16.419 31.593,18.169 29.943,19.586L32.293,21.936C34.61,19.886 36.443,17.319 37.593,14.386C34.71,7.069 27.593,1.886 19.26,1.886C17.143,1.886 15.11,2.219 13.193,2.836L15.943,5.586C17.027,5.369 18.127,5.219 19.26,5.219ZM17.477,7.119L20.927,10.569C21.877,10.986 22.643,11.752 23.06,12.702L26.51,16.152C26.643,15.586 26.743,14.986 26.743,14.369C26.76,10.236 23.393,6.886 19.26,6.886C18.643,6.886 18.06,6.969 17.477,7.119ZM2.61,1.669L7.077,6.136C4.36,8.269 2.21,11.102 0.927,14.386C3.81,21.702 10.927,26.886 19.26,26.886C21.793,26.886 24.227,26.402 26.46,25.519L32.16,31.219L34.51,28.869L4.96,-0.698L2.61,1.669ZM15.11,14.169L19.46,18.519C19.393,18.536 19.327,18.552 19.26,18.552C16.96,18.552 15.093,16.686 15.093,14.386C15.093,14.302 15.11,14.252 15.11,14.169ZM9.443,8.502L12.36,11.419C11.977,12.336 11.76,13.336 11.76,14.386C11.76,18.519 15.127,21.886 19.26,21.886C20.31,21.886 21.31,21.669 22.21,21.286L23.843,22.919C22.377,23.319 20.843,23.552 19.26,23.552C12.943,23.552 7.31,20.002 4.56,14.386C5.727,12.002 7.427,10.036 9.443,8.502Z" fill="#000000" fill-opacity="0.87"/>
</svg>
