<svg width="50" height="54" viewBox="0 0 50 54" fill="none" xmlns="http://www.w3.org/2000/svg" xmlns:xlink="http://www.w3.org/1999/xlink">
<path d="M22.98,1C11.804,1 1.476,7.954 3.418,24.5C3.072,24.776 2.738,25.072 2.48,25.438C1.474,26.858 0.98,28.704 0.98,30.688C0.98,33.178 2.448,35.094 3.98,36.5C5.1,37.53 6.246,38.248 7.542,38.626C8.562,41.906 10.44,44.626 12.668,46.5C12.867,46.688 13.101,46.833 13.358,46.926C13.614,47.02 13.887,47.06 14.159,47.044C14.432,47.029 14.698,46.957 14.942,46.835C15.186,46.712 15.402,46.541 15.578,46.331C15.753,46.122 15.883,45.879 15.961,45.617C16.039,45.355 16.062,45.081 16.029,44.81C15.997,44.539 15.909,44.277 15.772,44.041C15.634,43.805 15.45,43.6 15.23,43.438C13.218,41.744 11.536,39.482 10.918,36.562C10.819,36.121 10.574,35.726 10.222,35.443C9.87,35.159 9.432,35.003 8.98,35C9.226,35 7.688,34.5 6.668,33.562C5.648,32.626 4.98,31.452 4.98,30.688C4.98,29.76 5.202,28.984 5.48,28.376C5.752,28.684 6.112,28.902 6.512,28.998C6.911,29.095 7.331,29.066 7.713,28.915C8.095,28.765 8.422,28.5 8.649,28.158C8.876,27.815 8.992,27.411 8.98,27L8.98,25.312C8.983,25.249 8.983,25.187 8.98,25.124C9.06,23.698 9.248,22.388 9.542,21.188C12.3,20.24 14.596,21.778 16.98,14.75C20.46,25.096 29.472,19.178 35.668,18.876C36.396,20.646 36.848,22.726 36.98,25.124C36.977,25.187 36.977,25.249 36.98,25.312L36.98,27C36.98,27.53 37.191,28.039 37.566,28.414C37.941,28.789 38.45,29 38.98,29L38.98,33.938C38.112,34.62 37.15,35 36.98,35C36.528,35.003 36.091,35.159 35.739,35.443C35.387,35.726 35.141,36.121 35.042,36.562C34.634,38.494 33.726,40.12 32.606,41.5C32.438,41.705 32.312,41.941 32.235,42.195C32.158,42.449 32.132,42.716 32.158,42.98C32.184,43.244 32.262,43.5 32.387,43.734C32.512,43.968 32.682,44.175 32.887,44.343C33.093,44.511 33.329,44.637 33.583,44.714C33.837,44.791 34.103,44.817 34.367,44.791C34.631,44.765 34.887,44.687 35.121,44.562C35.355,44.437 35.562,44.267 35.73,44.062C36.93,42.584 37.726,40.65 38.356,38.626C39.545,38.326 40.654,37.771 41.606,37L42.98,37C42.49,39.562 41.588,41.496 40.668,42.876C39.368,44.826 38.248,45.508 38.168,45.562C38.11,45.592 37.4,45.982 35.354,46.438C33.794,46.784 31.548,47.154 28.542,47.312C28.14,45.082 25.804,43.376 22.98,43.376C19.872,43.376 17.354,45.446 17.354,48C17.354,50.554 19.874,52.626 22.98,52.626C24.922,52.626 26.656,51.794 27.668,50.562C31.368,50.414 34.18,49.99 36.106,49.562C38.478,49.036 39.666,48.438 39.666,48.438C39.733,48.401 39.796,48.358 39.856,48.312C39.856,48.312 41.64,47.102 43.292,44.626C44.628,42.622 45.952,39.716 46.418,35.876C47.874,34.786 48.792,33.004 48.792,31L48.792,27C48.792,23.686 46.292,21 42.98,21L42.668,21C42.676,7.004 33.328,1 22.98,1ZM40.292,20.75C40.352,20.834 40.422,20.91 40.48,21L40.292,21C40.276,20.918 40.31,20.832 40.292,20.75ZM14.98,25C13.92,25 12.902,25.421 12.152,26.172C11.402,26.922 10.98,27.939 10.98,29C10.98,30.061 11.402,31.078 12.152,31.828C12.902,32.579 13.92,33 14.98,33C16.041,33 17.059,32.579 17.809,31.828C18.559,31.078 18.98,30.061 18.98,29C18.98,27.939 18.559,26.922 17.809,26.172C17.059,25.421 16.041,25 14.98,25ZM30.98,25C29.92,25 28.902,25.421 28.152,26.172C27.402,26.922 26.98,27.939 26.98,29C26.98,30.061 27.402,31.078 28.152,31.828C28.902,32.579 29.92,33 30.98,33C32.041,33 33.059,32.579 33.809,31.828C34.559,31.078 34.98,30.061 34.98,29C34.98,27.939 34.559,26.922 33.809,26.172C33.059,25.421 32.041,25 30.98,25Z" fill="#000000"/>
</svg>
