<svg width="80" height="80" viewBox="0 0 80 80" fill="none" xmlns="http://www.w3.org/2000/svg" xmlns:xlink="http://www.w3.org/1999/xlink">
<path d="M32.84,51C33.212,51.375 33.654,51.672 34.142,51.876C34.629,52.079 35.152,52.183 35.68,52.183C36.208,52.183 36.731,52.079 37.218,51.876C37.706,51.672 38.148,51.375 38.52,51L54.84,34.68C55.593,33.927 56.016,32.905 56.016,31.84C56.016,30.775 55.593,29.753 54.84,29C54.087,28.247 53.065,27.824 52,27.824C50.935,27.824 49.913,28.247 49.16,29L35.68,42.52L30.84,37.64C30.087,36.887 29.065,36.464 28,36.464C26.935,36.464 25.913,36.887 25.16,37.64C24.407,38.393 23.984,39.415 23.984,40.48C23.984,41.545 24.407,42.567 25.16,43.32L32.84,51ZM76,0L4,0C2.939,0 1.922,0.421 1.172,1.172C0.421,1.922 0,2.939 0,4L0,76C0,77.061 0.421,78.078 1.172,78.828C1.922,79.579 2.939,80 4,80L76,80C77.061,80 78.078,79.579 78.828,78.828C79.579,78.078 80,77.061 80,76L80,4C80,2.939 79.579,1.922 78.828,1.172C78.078,0.421 77.061,0 76,0ZM72,72L8,72L8,8L72,8L72,72Z" fill="#09887B"/>
</svg>
