<svg width="30" height="24" viewBox="0 0 30 24" fill="none" xmlns="http://www.w3.org/2000/svg" xmlns:xlink="http://www.w3.org/1999/xlink">
<path d="M0.605,22.058L27.573,22.058C27.846,22.057 28.114,21.982 28.348,21.84C28.581,21.698 28.771,21.495 28.898,21.252C29.025,21.01 29.083,20.738 29.067,20.464C29.051,20.191 28.961,19.927 28.806,19.702L15.322,0.179C14.763,-0.63 13.418,-0.63 12.857,0.179L-0.627,19.702C-0.783,19.927 -0.875,20.191 -0.892,20.464C-0.909,20.738 -0.851,21.011 -0.724,21.254C-0.597,21.497 -0.406,21.7 -0.172,21.842C0.063,21.984 0.331,22.059 0.605,22.058Z" transform="rotate(359.598 14.088 10.815)" fill="#8D8D8D"/>
</svg>
