<svg width="50" height="54" viewBox="0 0 50 54" fill="none" xmlns="http://www.w3.org/2000/svg" xmlns:xlink="http://www.w3.org/1999/xlink">
<path d="M22.742,0.764C11.566,0.764 1.238,7.718 3.18,24.264C2.834,24.54 2.5,24.836 2.242,25.202C1.236,26.622 0.742,28.468 0.742,30.452C0.742,32.942 2.21,34.858 3.742,36.264C4.862,37.294 6.008,38.012 7.304,38.39C8.324,41.67 10.202,44.39 12.43,46.264C12.628,46.451 12.863,46.596 13.119,46.69C13.376,46.784 13.649,46.824 13.921,46.808C14.194,46.792 14.46,46.721 14.704,46.598C14.948,46.475 15.164,46.304 15.339,46.095C15.514,45.885 15.645,45.642 15.723,45.381C15.8,45.119 15.824,44.844 15.791,44.573C15.759,44.302 15.671,44.041 15.534,43.805C15.396,43.569 15.212,43.364 14.992,43.202C12.98,41.508 11.298,39.246 10.68,36.326C10.581,35.885 10.336,35.49 9.984,35.206C9.632,34.923 9.194,34.767 8.742,34.764C8.988,34.764 7.45,34.264 6.43,33.326C5.41,32.39 4.742,31.216 4.742,30.452C4.742,29.524 4.964,28.748 5.242,28.14C5.514,28.448 5.874,28.665 6.273,28.762C6.673,28.858 7.092,28.829 7.475,28.679C7.857,28.529 8.184,28.264 8.411,27.921C8.638,27.579 8.753,27.174 8.742,26.764L8.742,25.076C8.745,25.013 8.745,24.95 8.742,24.888C8.822,23.462 9.01,22.152 9.304,20.952C12.062,20.004 14.358,21.542 16.742,14.514C20.222,24.86 29.234,18.942 35.43,18.64C36.158,20.41 36.61,22.49 36.742,24.888C36.739,24.95 36.739,25.013 36.742,25.076L36.742,26.764C36.742,27.294 36.953,27.803 37.328,28.178C37.703,28.553 38.212,28.764 38.742,28.764L38.742,33.702C37.874,34.384 36.912,34.764 36.742,34.764C36.29,34.767 35.853,34.923 35.501,35.206C35.149,35.49 34.903,35.885 34.804,36.326C34.396,38.258 33.488,39.884 32.368,41.264C32.2,41.469 32.074,41.705 31.997,41.959C31.92,42.213 31.894,42.479 31.92,42.743C31.946,43.007 32.024,43.264 32.149,43.497C32.274,43.731 32.444,43.938 32.649,44.107C32.854,44.275 33.091,44.401 33.344,44.478C33.598,44.555 33.865,44.581 34.129,44.555C34.393,44.529 34.649,44.451 34.883,44.326C35.117,44.201 35.324,44.031 35.492,43.826C36.692,42.348 37.488,40.414 38.118,38.39C39.307,38.09 40.416,37.535 41.368,36.764L42.742,36.764C42.252,39.326 41.35,41.26 40.43,42.64C39.13,44.59 38.01,45.272 37.93,45.326C37.872,45.356 37.162,45.746 35.116,46.202C33.556,46.548 31.31,46.918 28.304,47.076C27.902,44.846 25.566,43.14 22.742,43.14C19.634,43.14 17.116,45.21 17.116,47.764C17.116,50.318 19.636,52.39 22.742,52.39C24.684,52.39 26.418,51.558 27.43,50.326C31.13,50.178 33.942,49.754 35.868,49.326C38.24,48.8 39.428,48.202 39.428,48.202C39.494,48.164 39.558,48.122 39.618,48.076C39.618,48.076 41.402,46.866 43.054,44.39C44.39,42.386 45.714,39.48 46.18,35.64C47.636,34.55 48.554,32.768 48.554,30.764L48.554,26.764C48.554,23.45 46.054,20.764 42.742,20.764L42.43,20.764C42.438,6.768 33.09,0.764 22.742,0.764ZM40.054,20.514C40.114,20.598 40.184,20.674 40.242,20.764L40.054,20.764C40.038,20.682 40.072,20.596 40.054,20.514ZM14.742,24.764C13.681,24.764 12.664,25.185 11.914,25.935C11.164,26.685 10.742,27.703 10.742,28.764C10.742,29.824 11.164,30.842 11.914,31.592C12.664,32.342 13.681,32.764 14.742,32.764C15.803,32.764 16.82,32.342 17.571,31.592C18.321,30.842 18.742,29.824 18.742,28.764C18.742,27.703 18.321,26.685 17.571,25.935C16.82,25.185 15.803,24.764 14.742,24.764ZM30.742,24.764C29.681,24.764 28.664,25.185 27.914,25.935C27.164,26.685 26.742,27.703 26.742,28.764C26.742,29.824 27.164,30.842 27.914,31.592C28.664,32.342 29.681,32.764 30.742,32.764C31.803,32.764 32.82,32.342 33.571,31.592C34.321,30.842 34.742,29.824 34.742,28.764C34.742,27.703 34.321,26.685 33.571,25.935C32.82,25.185 31.803,24.764 30.742,24.764Z" fill="#000000"/>
</svg>
