<svg width="26" height="32" viewBox="0 0 26 32" fill="none" xmlns="http://www.w3.org/2000/svg" xmlns:xlink="http://www.w3.org/1999/xlink">
<path d="M24.219,17.149C24.219,24.837 18.772,30.001 12.008,30.117C14.425,30.044 16.349,28.804 16.349,25.237C16.349,21.556 11.771,16.786 11.771,16.786C11.771,16.786 7.194,21.556 7.194,25.237C7.194,28.804 9.118,30.044 11.535,30.117C4.771,30.001 -0.677,24.837 -0.677,17.149C-0.677,14.412 0.863,11.492 2.864,8.858C2.245,11.658 4.422,14.341 6.464,14.395C6.871,9.755 6.871,6.785 11.771,0.117C15.408,7.618 23.923,8.378 24.219,17.149Z" transform="rotate(0.577 11.771 15.117)" fill="#000000"/>
</svg>
