<svg width="120" height="120" viewBox="0 0 120 120" fill="none" xmlns="http://www.w3.org/2000/svg" xmlns:xlink="http://www.w3.org/1999/xlink">
<path d="M60,0C26.866,0 0,26.866 0,60C0,93.134 26.866,120 60,120C93.134,120 120,93.134 120,60C120,26.866 93.134,0 60,0ZM79.299,60.924L50.049,82.205C49.889,82.321 49.7,82.389 49.503,82.404C49.306,82.419 49.109,82.379 48.933,82.289C48.757,82.199 48.61,82.063 48.506,81.894C48.403,81.726 48.349,81.532 48.348,81.335L48.348,38.799C48.348,38.601 48.402,38.407 48.505,38.238C48.608,38.069 48.755,37.932 48.931,37.842C49.108,37.752 49.305,37.712 49.503,37.727C49.7,37.743 49.889,37.812 50.049,37.929L79.299,59.196C79.437,59.294 79.55,59.424 79.628,59.574C79.706,59.724 79.746,59.891 79.746,60.06C79.746,60.23 79.706,60.396 79.628,60.547C79.55,60.697 79.437,60.826 79.299,60.924L79.299,60.924Z" fill="#EDEDF5"/>
</svg>
