<svg width="32" height="32" viewBox="0 0 32 32" fill="none" xmlns="http://www.w3.org/2000/svg" xmlns:xlink="http://www.w3.org/1999/xlink">
<path d="M16.004,7.797C11.463,7.797 7.801,11.46 7.801,16C7.801,20.54 11.463,24.202 16.004,24.202C20.544,24.202 24.206,20.54 24.206,16C24.206,11.46 20.544,7.797 16.004,7.797ZM16.004,21.333C13.07,21.333 10.671,18.941 10.671,16C10.671,13.059 13.062,10.667 16.004,10.667C18.945,10.667 21.336,13.059 21.336,16C21.336,18.941 18.938,21.333 16.004,21.333L16.004,21.333ZM26.455,7.462C26.455,8.525 25.598,9.375 24.542,9.375C23.478,9.375 22.628,8.518 22.628,7.462C22.628,6.405 23.485,5.549 24.542,5.549C25.598,5.549 26.455,6.405 26.455,7.462ZM31.888,9.404C31.766,6.841 31.181,4.571 29.303,2.7C27.433,0.83 25.163,0.244 22.6,0.116C19.959,-0.034 12.041,-0.034 9.4,0.116C6.844,0.237 4.574,0.823 2.697,2.693C0.819,4.563 0.241,6.834 0.112,9.396C-0.037,12.038 -0.037,19.955 0.112,22.596C0.234,25.159 0.819,27.429 2.697,29.3C4.574,31.17 6.837,31.755 9.4,31.884C12.041,32.034 19.959,32.034 22.6,31.884C25.163,31.762 27.433,31.177 29.303,29.3C31.174,27.429 31.759,25.159 31.888,22.596C32.037,19.955 32.037,12.045 31.888,9.404L31.888,9.404ZM28.475,25.43C27.918,26.83 26.84,27.907 25.434,28.471C23.328,29.307 18.331,29.114 16.004,29.114C13.676,29.114 8.672,29.3 6.573,28.471C5.174,27.915 4.096,26.837 3.532,25.43C2.697,23.324 2.889,18.327 2.889,16C2.889,13.673 2.704,8.668 3.532,6.569C4.089,5.17 5.167,4.092 6.573,3.528C8.679,2.693 13.676,2.886 16.004,2.886C18.331,2.886 23.335,2.7 25.434,3.528C26.833,4.085 27.911,5.163 28.475,6.569C29.31,8.675 29.118,13.673 29.118,16C29.118,18.327 29.31,23.331 28.475,25.43Z" fill="#EDEDF5"/>
</svg>
