<svg width="50" height="52" viewBox="0 0 50 52" fill="none" xmlns="http://www.w3.org/2000/svg" xmlns:xlink="http://www.w3.org/1999/xlink">
<path d="M22.756,0.23C11.58,0.23 1.252,7.184 3.194,23.73C2.848,24.006 2.514,24.302 2.256,24.668C1.25,26.088 0.756,27.934 0.756,29.918C0.756,32.408 2.224,34.324 3.756,35.73C4.876,36.76 6.022,37.478 7.318,37.856C8.338,41.136 10.216,43.856 12.444,45.73C12.642,45.918 12.877,46.063 13.133,46.157C13.389,46.251 13.662,46.291 13.935,46.275C14.207,46.259 14.474,46.188 14.718,46.065C14.962,45.942 15.178,45.771 15.353,45.562C15.528,45.352 15.659,45.109 15.736,44.848C15.814,44.586 15.837,44.311 15.805,44.04C15.772,43.769 15.685,43.507 15.547,43.272C15.41,43.036 15.226,42.83 15.006,42.668C12.994,40.974 11.312,38.712 10.694,35.792C10.595,35.351 10.349,34.957 9.997,34.673C9.646,34.39 9.208,34.233 8.756,34.23C9.002,34.23 7.464,33.73 6.444,32.792C5.424,31.856 4.756,30.682 4.756,29.918C4.756,28.99 4.978,28.214 5.256,27.606C5.527,27.915 5.888,28.132 6.287,28.228C6.686,28.325 7.106,28.296 7.488,28.146C7.871,27.995 8.198,27.731 8.424,27.388C8.651,27.045 8.767,26.641 8.756,26.23L8.756,24.542C8.759,24.48 8.759,24.417 8.756,24.354C8.836,22.928 9.024,21.618 9.318,20.418C12.076,19.47 14.372,21.008 16.756,13.98C20.236,24.326 29.248,18.408 35.444,18.106C36.172,19.876 36.624,21.956 36.756,24.354C36.753,24.417 36.753,24.48 36.756,24.542L36.756,26.23C36.756,26.761 36.967,27.27 37.342,27.645C37.717,28.02 38.225,28.23 38.756,28.23L38.756,33.168C37.888,33.85 36.926,34.23 36.756,34.23C36.304,34.233 35.866,34.39 35.514,34.673C35.162,34.957 34.917,35.351 34.818,35.792C34.41,37.724 33.502,39.35 32.382,40.73C32.214,40.936 32.087,41.172 32.01,41.426C31.934,41.68 31.907,41.946 31.933,42.21C31.96,42.474 32.037,42.73 32.163,42.964C32.288,43.198 32.458,43.405 32.663,43.573C32.868,43.742 33.104,43.868 33.358,43.945C33.612,44.022 33.878,44.048 34.142,44.022C34.406,43.996 34.663,43.918 34.897,43.793C35.131,43.668 35.338,43.498 35.506,43.292C36.706,41.814 37.502,39.88 38.132,37.856C39.32,37.556 40.429,37.002 41.382,36.23L42.756,36.23C42.266,38.792 41.364,40.726 40.444,42.106C39.144,44.056 38.024,44.738 37.944,44.792C37.886,44.822 37.176,45.212 35.13,45.668C33.57,46.014 31.324,46.384 28.318,46.542C27.916,44.312 25.58,42.606 22.756,42.606C19.648,42.606 17.13,44.676 17.13,47.23C17.13,49.784 19.65,51.856 22.756,51.856C24.698,51.856 26.432,51.024 27.444,49.792C31.144,49.644 33.956,49.22 35.882,48.792C38.254,48.266 39.442,47.668 39.442,47.668C39.508,47.631 39.572,47.589 39.632,47.542C39.632,47.542 41.416,46.332 43.068,43.856C44.404,41.852 45.728,38.946 46.194,35.106C47.65,34.016 48.568,32.234 48.568,30.23L48.568,26.23C48.568,22.916 46.068,20.23 42.756,20.23L42.444,20.23C42.452,6.234 33.104,0.23 22.756,0.23ZM40.068,19.98C40.128,20.064 40.198,20.14 40.256,20.23L40.068,20.23C40.052,20.148 40.086,20.062 40.068,19.98ZM14.756,24.23C13.695,24.23 12.678,24.652 11.927,25.402C11.177,26.152 10.756,27.17 10.756,28.23C10.756,29.291 11.177,30.309 11.927,31.059C12.678,31.809 13.695,32.23 14.756,32.23C15.817,32.23 16.834,31.809 17.584,31.059C18.334,30.309 18.756,29.291 18.756,28.23C18.756,27.17 18.334,26.152 17.584,25.402C16.834,24.652 15.817,24.23 14.756,24.23ZM30.756,24.23C29.695,24.23 28.678,24.652 27.927,25.402C27.177,26.152 26.756,27.17 26.756,28.23C26.756,29.291 27.177,30.309 27.927,31.059C28.678,31.809 29.695,32.23 30.756,32.23C31.817,32.23 32.834,31.809 33.584,31.059C34.334,30.309 34.756,29.291 34.756,28.23C34.756,27.17 34.334,26.152 33.584,25.402C32.834,24.652 31.817,24.23 30.756,24.23Z" fill="#000000"/>
</svg>
