<svg width="48" height="52" viewBox="0 0 48 52" fill="none" xmlns="http://www.w3.org/2000/svg" xmlns:xlink="http://www.w3.org/1999/xlink">
<path d="M21.242,-0.23C10.066,-0.23 -0.262,6.724 1.68,23.27C1.334,23.546 1,23.842 0.742,24.208C-0.264,25.628 -0.758,27.474 -0.758,29.458C-0.758,31.948 0.71,33.864 2.242,35.27C3.362,36.3 4.508,37.018 5.804,37.396C6.824,40.676 8.702,43.396 10.93,45.27C11.128,45.457 11.363,45.602 11.619,45.696C11.876,45.79 12.149,45.83 12.421,45.814C12.694,45.798 12.96,45.727 13.204,45.604C13.448,45.481 13.664,45.31 13.839,45.101C14.014,44.891 14.145,44.648 14.223,44.387C14.3,44.125 14.324,43.85 14.291,43.579C14.259,43.308 14.171,43.047 14.034,42.811C13.896,42.575 13.712,42.37 13.492,42.208C11.48,40.514 9.798,38.252 9.18,35.332C9.081,34.891 8.836,34.496 8.484,34.212C8.132,33.929 7.694,33.773 7.242,33.77C7.488,33.77 5.95,33.27 4.93,32.332C3.91,31.396 3.242,30.222 3.242,29.458C3.242,28.53 3.464,27.754 3.742,27.146C4.014,27.454 4.374,27.671 4.773,27.768C5.173,27.864 5.592,27.835 5.975,27.685C6.357,27.535 6.684,27.27 6.911,26.927C7.138,26.585 7.253,26.18 7.242,25.77L7.242,24.082C7.245,24.019 7.245,23.956 7.242,23.894C7.322,22.468 7.51,21.158 7.804,19.958C10.562,19.01 12.858,20.548 15.242,13.52C18.722,23.866 27.734,17.948 33.93,17.646C34.658,19.416 35.11,21.496 35.242,23.894C35.239,23.956 35.239,24.019 35.242,24.082L35.242,25.77C35.242,26.3 35.453,26.809 35.828,27.184C36.203,27.559 36.712,27.77 37.242,27.77L37.242,32.708C36.374,33.39 35.412,33.77 35.242,33.77C34.79,33.773 34.353,33.929 34.001,34.212C33.649,34.496 33.403,34.891 33.304,35.332C32.896,37.264 31.988,38.89 30.868,40.27C30.7,40.475 30.574,40.711 30.497,40.965C30.42,41.219 30.394,41.485 30.42,41.749C30.446,42.013 30.524,42.27 30.649,42.503C30.774,42.737 30.944,42.944 31.149,43.113C31.354,43.281 31.591,43.407 31.844,43.484C32.098,43.561 32.365,43.587 32.629,43.561C32.893,43.535 33.149,43.457 33.383,43.332C33.617,43.207 33.824,43.037 33.992,42.832C35.192,41.354 35.988,39.42 36.618,37.396C37.807,37.096 38.916,36.541 39.868,35.77L41.242,35.77C40.752,38.332 39.85,40.266 38.93,41.646C37.63,43.596 36.51,44.278 36.43,44.332C36.372,44.362 35.662,44.752 33.616,45.208C32.056,45.554 29.81,45.924 26.804,46.082C26.402,43.852 24.066,42.146 21.242,42.146C18.134,42.146 15.616,44.216 15.616,46.77C15.616,49.324 18.136,51.396 21.242,51.396C23.184,51.396 24.918,50.564 25.93,49.332C29.63,49.184 32.442,48.76 34.368,48.332C36.74,47.806 37.928,47.208 37.928,47.208C37.994,47.17 38.058,47.128 38.118,47.082C38.118,47.082 39.902,45.872 41.554,43.396C42.89,41.392 44.214,38.486 44.68,34.646C46.136,33.556 47.054,31.774 47.054,29.77L47.054,25.77C47.054,22.456 44.554,19.77 41.242,19.77L40.93,19.77C40.938,5.774 31.59,-0.23 21.242,-0.23ZM38.554,19.52C38.614,19.604 38.684,19.68 38.742,19.77L38.554,19.77C38.538,19.688 38.572,19.602 38.554,19.52ZM13.242,23.77C12.181,23.77 11.164,24.191 10.414,24.941C9.664,25.691 9.242,26.709 9.242,27.77C9.242,28.83 9.664,29.848 10.414,30.598C11.164,31.348 12.181,31.77 13.242,31.77C14.303,31.77 15.32,31.348 16.071,30.598C16.821,29.848 17.242,28.83 17.242,27.77C17.242,26.709 16.821,25.691 16.071,24.941C15.32,24.191 14.303,23.77 13.242,23.77ZM29.242,23.77C28.181,23.77 27.164,24.191 26.414,24.941C25.664,25.691 25.242,26.709 25.242,27.77C25.242,28.83 25.664,29.848 26.414,30.598C27.164,31.348 28.181,31.77 29.242,31.77C30.303,31.77 31.32,31.348 32.071,30.598C32.821,29.848 33.242,28.83 33.242,27.77C33.242,26.709 32.821,25.691 32.071,24.941C31.32,24.191 30.303,23.77 29.242,23.77Z" fill="#000000"/>
</svg>
