<svg width="34" height="30" viewBox="0 0 34 30" fill="none" xmlns="http://www.w3.org/2000/svg" xmlns:xlink="http://www.w3.org/1999/xlink">
<path d="M27.073,6.815L22.975,6.815L22.975,3.405C22.975,1.602 21.5,0.127 19.696,0.127L13.336,0.127C11.533,0.127 10.058,1.602 10.058,3.405L10.058,6.782L5.96,6.782C3.206,6.782 0.944,9.044 0.944,11.798L0.944,24.911C0.944,27.665 3.206,29.927 5.96,29.927L27.073,29.927C29.826,29.927 32.089,27.665 32.089,24.911L32.089,11.798C32.089,9.044 29.826,6.815 27.073,6.815ZM13.14,3.405C13.14,3.307 13.238,3.208 13.336,3.208L19.664,3.208C19.762,3.208 19.86,3.307 19.86,3.405L19.86,6.782L13.14,6.782L13.14,3.405ZM22.385,20.42L18.582,20.42L18.582,24.255L14.451,24.255L14.451,20.42L10.648,20.42L10.648,16.322L14.484,16.322L14.484,12.486L18.582,12.486L18.582,16.322L22.417,16.322L22.417,20.42L22.385,20.42Z" transform="rotate(0.577 16.516 15.027)" fill="#000000"/>
</svg>
