<svg width="40" height="40" viewBox="0 0 40 40" fill="none" xmlns="http://www.w3.org/2000/svg" xmlns:xlink="http://www.w3.org/1999/xlink">
<path d="M20,3.333C10.8,3.333 3.333,10.8 3.333,20C3.333,29.2 10.8,36.667 20,36.667C29.2,36.667 36.666,29.2 36.666,20C36.666,10.8 29.2,3.333 20,3.333ZM11.783,30.467C12.5,28.967 16.866,27.5 20,27.5C23.133,27.5 27.516,28.967 28.216,30.467C25.95,32.267 23.1,33.333 20,33.333C16.9,33.333 14.05,32.267 11.783,30.467ZM30.6,28.05C28.216,25.15 22.433,24.167 20,24.167C17.566,24.167 11.783,25.15 9.4,28.05C7.7,25.817 6.666,23.033 6.666,20C6.666,12.65 12.65,6.667 20,6.667C27.35,6.667 33.333,12.65 33.333,20C33.333,23.033 32.3,25.817 30.6,28.05Z" fill="#5F6368"/>
<path d="M20,10C16.767,10 14.167,12.6 14.167,15.833C14.167,19.067 16.767,21.667 20,21.667C23.234,21.667 25.834,19.067 25.834,15.833C25.834,12.6 23.234,10 20,10ZM20,18.333C18.617,18.333 17.5,17.217 17.5,15.833C17.5,14.45 18.617,13.333 20,13.333C21.384,13.333 22.5,14.45 22.5,15.833C22.5,17.217 21.384,18.333 20,18.333Z" fill="#5F6368"/>
</svg>
