<svg width="100" height="108" viewBox="0 0 100 108" fill="none" xmlns="http://www.w3.org/2000/svg" xmlns:xlink="http://www.w3.org/1999/xlink">
<path d="M88.583,45.897C88.583,74.12 50.268,98.311 50.268,98.311C50.268,98.311 11.953,74.12 11.953,45.897C11.953,25.856 29.107,9.61 50.268,9.61C71.429,9.61 88.583,25.856 88.583,45.897L88.583,45.897Z" clip-rule="evenodd" fill-rule="evenodd" transform="rotate(-32.904 50.268 53.961)" fill="#6938D3" stroke="#6938D3" stroke-width="2" stroke-miterlimit="3.999327" stroke-linecap="round" stroke-linejoin="round"/>
<path d="M47.983,58.323C55.037,58.323 60.755,52.908 60.755,46.228C60.755,39.547 55.037,34.132 47.983,34.132C40.929,34.132 35.211,39.547 35.211,46.228C35.211,52.908 40.929,58.323 47.983,58.323Z" clip-rule="evenodd" fill-rule="evenodd" transform="rotate(-32.904 47.983 46.228)" fill="#FFFFFF" stroke="#FFFFFF" stroke-width="2" stroke-miterlimit="3.999327" stroke-linecap="round" stroke-linejoin="round"/>
</svg>
