<svg width="34" height="40" viewBox="0 0 34 40" fill="none" xmlns="http://www.w3.org/2000/svg" xmlns:xlink="http://www.w3.org/1999/xlink">
<path d="M2.048,28.862L8.774,23.718C8.39,22.55 8.182,21.3 8.182,20C8.182,18.7 8.39,17.45 8.774,16.282L2.048,11.138C0.736,13.805 0,16.813 0,20C0,23.187 0.736,26.195 2.048,28.862Z" fill="#FBBC05"/>
<path d="M8.775,16.282C10.326,11.568 14.755,8.182 20,8.182C22.818,8.182 25.364,9.182 27.364,10.818L33.182,5C29.636,1.909 25.091,0 20,0C12.097,0 5.301,4.524 2.048,11.138L8.775,16.282Z" fill="#EA4335"/>
<path d="M20,40C12.094,40 5.297,35.473 2.045,28.856L8.769,23.701C10.316,28.424 14.748,31.818 20,31.818C22.57,31.818 24.847,31.213 26.65,30.075L33.036,35.019C29.54,38.269 24.878,40 20,40Z" fill="#34A853"/>
</svg>
