<svg width="28" height="32" viewBox="0 0 28 32" fill="none" xmlns="http://www.w3.org/2000/svg" xmlns:xlink="http://www.w3.org/1999/xlink">
<path d="M12.121,16.943C12.973,15.938 14.259,15.068 15.624,14.171C17.69,12.818 20.034,11.235 21.148,8.869C23.023,4.886 26.023,3.915 26.154,3.874L26.18,3.874C26.027,2.744 25.55,1.683 24.808,0.818L7.464,18.161L9.883,20.584C10.055,20.014 10.569,18.78 12.121,16.943Z" transform="rotate(0.577 16.822 10.701)" fill="#000000"/>
<path d="M21.471,9.034C20.316,11.497 17.916,13.091 15.816,14.494C14.473,15.39 13.21,16.23 12.392,17.194C10.63,19.279 10.251,20.569 10.176,20.899L12.051,22.774L21.163,13.702C21.163,13.702 26.541,9.011 26.207,4.256C25.84,4.387 23.166,5.46 21.471,9.034Z" transform="rotate(0.577 18.199 13.515)" fill="#000000"/>
<path d="M10.206,24.533L5.582,19.909L0.332,25.159C0.028,25.463 -0.214,25.823 -0.379,26.221C-0.544,26.618 -0.629,27.044 -0.629,27.474C-0.629,27.905 -0.544,28.331 -0.379,28.728C-0.214,29.125 0.028,29.486 0.332,29.79C0.637,30.095 0.998,30.337 1.395,30.502C1.793,30.667 2.219,30.752 2.65,30.752C3.081,30.752 3.507,30.667 3.904,30.502C4.302,30.337 4.663,30.095 4.967,29.79L10.206,24.533Z" transform="rotate(0.577 4.789 25.33)" fill="#000000"/>
<path d="M24.845,22.608C29.203,22.608 24.845,15.202 24.845,15.202C24.845,15.202 20.484,22.608 24.845,22.608Z" transform="rotate(0.577 24.844 18.905)" fill="#000000"/>
<path d="M18.639,23.421C18.639,23.421 14.281,30.827 18.639,30.827C22.996,30.827 18.639,23.421 18.639,23.421Z" transform="rotate(0.577 18.639 27.124)" fill="#000000"/>
<path d="M9.719,16.075L7.915,16.075L7.915,26.597L9.719,26.597L9.719,16.075Z" transform="rotate(-89.423 8.817 21.336)" fill="#000000"/>
</svg>
