<svg width="42" height="26" viewBox="0 0 42 26" fill="none" xmlns="http://www.w3.org/2000/svg" xmlns:xlink="http://www.w3.org/1999/xlink">
<path d="M9.952,19.968L0.229,19.224L0.229,15.451L8.513,16.085L9.41,4.361L19.034,5.825L21.289,13.091L20.753,20.097C20.701,20.773 19.974,20.783 19.974,20.783L19.187,20.704C19.187,20.704 19.132,16.134 14.864,15.807C10.259,15.454 9.952,19.968 9.952,19.968ZM12.716,11.709L19.938,12.988L18.323,7.478L13.103,6.653L12.716,11.709Z" clip-rule="evenodd" fill-rule="evenodd" transform="rotate(0.577 10.759 12.572)" fill="#000000"/>
<path d="M6.922,14.985L0.254,14.475L0.254,0.041L8.02,0.636L6.922,14.985Z" transform="rotate(0.577 4.137 7.513)" fill="#000000"/>
<path d="M40.231,7.197L31.145,8.536L23.514,15.408L24.343,21.033L27.089,22.544C26.688,22.042 26.411,21.429 26.309,20.743C26.013,18.731 27.417,16.842 29.429,16.545C31.441,16.249 33.33,17.653 33.626,19.665C33.727,20.351 33.639,21.018 33.4,21.614L40.231,20.607L40.231,12.01L37.464,12.418L36.911,8.668L40.231,8.178L40.231,7.197ZM35.997,8.802L36.55,12.552L29.05,13.658L32.247,9.355L35.997,8.802Z" clip-rule="evenodd" fill-rule="evenodd" transform="rotate(0.577 31.873 14.871)" fill="#000000"/>
<path d="M27.198,20.599C26.975,19.09 28.021,17.627 29.576,17.398C31.131,17.169 32.554,18.267 32.777,19.776C32.999,21.285 31.953,22.748 30.398,22.977C28.889,23.199 27.42,22.108 27.198,20.599ZM31.313,19.992C31.206,19.26 30.523,18.753 29.792,18.861C29.06,18.969 28.553,19.651 28.661,20.383C28.769,21.115 29.451,21.622 30.183,21.514C30.914,21.406 31.421,20.724 31.313,19.992Z" clip-rule="evenodd" fill-rule="evenodd" transform="rotate(0.577 29.987 20.187)" fill="#000000"/>
<path d="M14.196,24.097C12.145,23.94 10.61,22.15 10.767,20.099C10.924,18.048 12.714,16.512 14.765,16.669C16.816,16.826 18.352,18.617 18.195,20.668C18.038,22.719 16.248,24.254 14.196,24.097ZM16.246,20.518C16.171,21.494 15.32,22.225 14.344,22.15C13.368,22.075 12.638,21.224 12.712,20.248C12.787,19.272 13.639,18.542 14.614,18.616C15.59,18.691 16.321,19.543 16.246,20.518Z" clip-rule="evenodd" fill-rule="evenodd" transform="rotate(0.577 14.481 20.383)" fill="#000000"/>
<path d="M27.659,2.766L24.948,6.334C24.688,6.678 24.143,6.548 24.065,6.125L23.589,3.555L23.411,7.227C23.389,7.679 22.824,7.868 22.534,7.521L21.063,5.755L22.238,9.113C22.29,9.262 22.211,9.425 22.063,9.477C21.914,9.53 21.75,9.451 21.698,9.302L20.385,5.551C20.203,5.029 20.881,4.645 21.235,5.069L22.849,7.006L23.05,2.88C23.078,2.291 23.926,2.234 24.033,2.813L24.596,5.853L27.457,2.087C27.792,1.646 28.487,2.001 28.327,2.531L27.275,6.013L29.716,4.88C30.202,4.655 30.651,5.253 30.298,5.657L27.032,9.396C26.928,9.515 26.747,9.527 26.628,9.423C26.51,9.319 26.497,9.138 26.601,9.02L29.634,5.548L27.363,6.602C26.974,6.783 26.555,6.419 26.679,6.008L27.659,2.766Z" transform="rotate(0.577 25.39 5.691)" fill="#000000"/>
</svg>
