<svg width="34" height="32" viewBox="0 0 34 32" fill="none" xmlns="http://www.w3.org/2000/svg" xmlns:xlink="http://www.w3.org/1999/xlink">
<path d="M12.579,6.874C12.757,7.587 12.864,8.407 12.935,9.369C12.971,9.903 12.9,10.616 12.793,11.4C12.543,13.468 12.222,16.034 14.04,16.818C14.254,16.925 14.397,17.139 14.361,17.388L13.791,21.986C14.896,22.2 15.608,22.628 16.107,22.913C16.499,23.162 16.499,23.162 16.82,23.162C17.105,23.162 17.141,23.162 17.533,22.913C17.996,22.628 18.709,22.2 19.779,21.986L20.242,18.101C20.278,17.887 20.384,17.745 20.598,17.673C23.307,16.64 24.875,13.717 25.945,11.757L27.014,9.761C27.121,9.547 27.156,9.262 27.05,9.048C26.943,8.834 26.764,8.656 26.515,8.585C26.194,8.478 25.838,8.62 25.624,8.87L24.341,10.545C23.984,11.008 23.557,11.4 23.058,11.721C22.951,11.793 22.844,11.828 22.701,11.793C20.206,11.543 19.386,14.002 19.351,14.109C19.28,14.394 18.959,14.573 18.674,14.466C18.388,14.394 18.21,14.074 18.317,13.788C18.638,12.684 19.921,10.723 22.309,10.688L24.982,2.953C25.125,2.561 24.911,2.098 24.483,1.955C24.091,1.813 23.664,2.027 23.485,2.419L21.418,7.908C21.311,8.157 21.062,8.3 20.777,8.228C20.527,8.157 20.349,7.908 20.384,7.622L21.169,1.029C21.24,0.601 20.919,0.209 20.491,0.138C20.064,0.102 19.672,0.387 19.636,0.779L18.567,7.551C18.531,7.836 18.282,8.014 18.032,8.014C17.747,8.014 17.533,7.801 17.497,7.515L17.034,1.777C17.034,1.563 16.927,1.385 16.749,1.242C16.606,1.1 16.393,1.029 16.143,1.064C15.715,1.1 15.395,1.456 15.43,1.884L15.608,7.694C15.608,7.979 15.43,8.193 15.145,8.228C14.86,8.264 14.61,8.086 14.539,7.836L13.399,3.524C13.292,3.131 12.864,2.882 12.436,2.989C12.222,3.025 12.044,3.167 11.937,3.345C11.83,3.524 11.795,3.737 11.83,3.951L12.579,6.874Z" transform="rotate(0.577 19.466 11.648)" fill="#000000"/>
<path d="M1.034,26.713C1.675,26.571 2.103,26.285 2.459,26.072C2.923,25.786 3.279,25.573 4.063,25.573C4.847,25.573 5.204,25.786 5.667,26.072C6.237,26.428 6.95,26.856 8.269,26.856C9.588,26.856 10.301,26.428 10.871,26.072C11.37,25.786 11.691,25.573 12.475,25.573C13.259,25.573 13.615,25.786 14.079,26.072C14.649,26.428 15.362,26.856 16.681,26.856C17.999,26.856 18.712,26.428 19.282,26.072C19.781,25.786 20.102,25.573 20.886,25.573C21.67,25.573 22.027,25.786 22.49,26.072C23.061,26.428 23.773,26.856 25.092,26.856C26.411,26.856 27.124,26.428 27.694,26.072C28.157,25.786 28.514,25.573 29.298,25.573C30.082,25.573 30.438,25.786 30.902,26.072C31.258,26.285 31.686,26.535 32.292,26.713C32.898,26.856 33.504,26.428 33.504,25.786C33.504,25.359 33.183,24.967 32.755,24.86C32.434,24.789 32.185,24.61 31.864,24.432C31.294,24.076 30.581,23.648 29.262,23.648C27.943,23.648 27.231,24.076 26.66,24.432C26.197,24.717 25.841,24.931 25.056,24.931C24.272,24.931 23.916,24.717 23.453,24.432C22.882,24.076 22.169,23.648 20.851,23.648C19.532,23.648 18.819,24.076 18.249,24.432C17.786,24.717 17.429,24.931 16.645,24.931C15.861,24.931 15.504,24.717 15.041,24.432C14.471,24.076 13.758,23.648 12.439,23.648C11.12,23.648 10.408,24.076 9.837,24.432C9.338,24.717 9.018,24.931 8.233,24.931C7.449,24.931 7.093,24.717 6.63,24.432C6.059,24.076 5.346,23.648 4.028,23.648C2.709,23.648 1.996,24.076 1.426,24.432C1.141,24.61 0.891,24.753 0.57,24.824C0.214,24.931 -0.107,25.216 -0.178,25.573C-0.249,26.285 0.392,26.856 1.034,26.713Z" transform="rotate(0.577 16.66 25.252)" fill="#000000"/>
<path d="M32.947,29.136C32.627,29.065 32.377,28.886 32.056,28.708C31.486,28.352 30.773,27.924 29.455,27.924C28.136,27.924 27.423,28.352 26.853,28.708C26.354,28.993 26.033,29.207 25.213,29.207C24.429,29.207 24.073,28.993 23.609,28.708C23.039,28.352 22.326,27.924 21.007,27.924C19.689,27.924 18.976,28.352 18.406,28.708C17.907,28.993 17.55,29.207 16.766,29.207C15.982,29.207 15.625,28.993 15.162,28.708C14.592,28.352 13.879,27.924 12.56,27.924C11.241,27.924 10.529,28.352 9.958,28.708C9.459,28.993 9.139,29.207 8.354,29.207C7.57,29.207 7.214,28.993 6.751,28.708C6.18,28.352 5.467,27.924 4.149,27.924C2.83,27.924 2.117,28.352 1.547,28.708C1.262,28.886 1.012,29.029 0.691,29.136C0.335,29.243 0.014,29.528 -0.057,29.884C-0.2,30.597 0.442,31.168 1.119,30.989C1.761,30.847 2.188,30.562 2.545,30.348C3.008,30.063 3.365,29.849 4.149,29.849C4.933,29.849 5.289,30.063 5.753,30.348C6.323,30.704 7.036,31.132 8.354,31.132C9.673,31.132 10.386,30.704 10.956,30.348C11.455,30.063 11.776,29.849 12.56,29.849C13.344,29.849 13.701,30.063 14.164,30.348C14.734,30.704 15.447,31.132 16.766,31.132C18.085,31.132 18.798,30.704 19.368,30.348C19.867,30.063 20.188,29.849 20.972,29.849C21.756,29.849 22.112,30.063 22.576,30.348C23.146,30.704 23.859,31.132 25.177,31.132C26.496,31.132 27.209,30.704 27.779,30.348C28.243,30.063 28.599,29.849 29.383,29.849C30.167,29.849 30.524,30.063 30.987,30.348C31.344,30.562 31.771,30.811 32.377,30.989C32.983,31.132 33.589,30.704 33.589,30.063C33.696,29.599 33.375,29.243 32.947,29.136Z" transform="rotate(0.577 16.766 29.528)" fill="#000000"/>
</svg>
