<svg width="48" height="52" viewBox="0 0 48 52" fill="none" xmlns="http://www.w3.org/2000/svg" xmlns:xlink="http://www.w3.org/1999/xlink">
<path d="M22.182,0.2C11.006,0.2 0.678,7.154 2.62,23.7C2.274,23.976 1.94,24.272 1.682,24.638C0.676,26.058 0.182,27.904 0.182,29.888C0.182,32.378 1.65,34.294 3.182,35.7C4.302,36.73 5.448,37.448 6.744,37.826C7.764,41.106 9.642,43.826 11.87,45.7C12.068,45.888 12.302,46.033 12.559,46.126C12.815,46.22 13.088,46.26 13.361,46.244C13.633,46.228 13.9,46.157 14.143,46.034C14.387,45.912 14.603,45.74 14.779,45.531C14.954,45.322 15.084,45.079 15.162,44.817C15.24,44.555 15.263,44.28 15.231,44.009C15.198,43.738 15.11,43.477 14.973,43.241C14.836,43.005 14.651,42.8 14.432,42.638C12.42,40.944 10.738,38.682 10.12,35.762C10.021,35.321 9.775,34.926 9.423,34.643C9.071,34.359 8.634,34.203 8.182,34.2C8.428,34.2 6.89,33.7 5.87,32.762C4.85,31.826 4.182,30.652 4.182,29.888C4.182,28.96 4.404,28.184 4.682,27.576C4.953,27.884 5.313,28.101 5.713,28.198C6.112,28.294 6.532,28.265 6.914,28.115C7.297,27.965 7.623,27.7 7.85,27.358C8.077,27.015 8.193,26.611 8.182,26.2L8.182,24.512C8.185,24.449 8.185,24.386 8.182,24.324C8.262,22.898 8.45,21.588 8.744,20.388C11.502,19.44 13.798,20.978 16.182,13.95C19.662,24.296 28.674,18.378 34.87,18.076C35.598,19.846 36.05,21.926 36.182,24.324C36.179,24.386 36.179,24.449 36.182,24.512L36.182,26.2C36.182,26.73 36.392,27.239 36.767,27.614C37.142,27.989 37.651,28.2 38.182,28.2L38.182,33.138C37.314,33.82 36.352,34.2 36.182,34.2C35.73,34.203 35.292,34.359 34.94,34.643C34.588,34.926 34.343,35.321 34.244,35.762C33.836,37.694 32.928,39.32 31.808,40.7C31.639,40.905 31.513,41.141 31.436,41.395C31.359,41.649 31.333,41.916 31.359,42.179C31.385,42.443 31.463,42.7 31.588,42.934C31.713,43.168 31.883,43.375 32.089,43.543C32.294,43.711 32.53,43.837 32.784,43.914C33.038,43.991 33.304,44.017 33.568,43.991C33.832,43.965 34.089,43.887 34.322,43.762C34.556,43.637 34.763,43.467 34.932,43.262C36.132,41.784 36.928,39.85 37.558,37.826C38.746,37.526 39.855,36.971 40.808,36.2L42.182,36.2C41.692,38.762 40.79,40.696 39.87,42.076C38.57,44.026 37.45,44.708 37.37,44.762C37.312,44.792 36.602,45.182 34.556,45.638C32.996,45.984 30.75,46.354 27.744,46.512C27.342,44.282 25.006,42.576 22.182,42.576C19.074,42.576 16.556,44.646 16.556,47.2C16.556,49.754 19.076,51.826 22.182,51.826C24.124,51.826 25.858,50.994 26.87,49.762C30.57,49.614 33.382,49.19 35.308,48.762C37.68,48.236 38.868,47.638 38.868,47.638C38.934,47.6 38.997,47.558 39.058,47.512C39.058,47.512 40.842,46.302 42.494,43.826C43.83,41.822 45.154,38.916 45.62,35.076C47.076,33.986 47.994,32.204 47.994,30.2L47.994,26.2C47.994,22.886 45.494,20.2 42.182,20.2L41.87,20.2C41.878,6.204 32.53,0.2 22.182,0.2ZM39.494,19.95C39.554,20.034 39.624,20.11 39.682,20.2L39.494,20.2C39.478,20.118 39.512,20.032 39.494,19.95ZM14.182,24.2C13.121,24.2 12.103,24.621 11.353,25.371C10.603,26.122 10.182,27.139 10.182,28.2C10.182,29.261 10.603,30.278 11.353,31.028C12.103,31.778 13.121,32.2 14.182,32.2C15.242,32.2 16.26,31.778 17.01,31.028C17.76,30.278 18.182,29.261 18.182,28.2C18.182,27.139 17.76,26.122 17.01,25.371C16.26,24.621 15.242,24.2 14.182,24.2ZM30.182,24.2C29.121,24.2 28.103,24.621 27.353,25.371C26.603,26.122 26.182,27.139 26.182,28.2C26.182,29.261 26.603,30.278 27.353,31.028C28.103,31.778 29.121,32.2 30.182,32.2C31.242,32.2 32.26,31.778 33.01,31.028C33.76,30.278 34.182,29.261 34.182,28.2C34.182,27.139 33.76,26.122 33.01,25.371C32.26,24.621 31.242,24.2 30.182,24.2Z" transform="rotate(0.577 24.088 26.013)" fill="#000000"/>
</svg>
