<svg width="34" height="48" viewBox="0 0 34 48" fill="none" xmlns="http://www.w3.org/2000/svg" xmlns:xlink="http://www.w3.org/1999/xlink">
<path d="M15.999,9.6C15.363,9.6 14.752,9.853 14.302,10.303C13.852,10.753 13.599,11.363 13.599,12L13.599,16.8C13.599,17.437 13.852,18.047 14.302,18.497C14.752,18.947 15.363,19.2 15.999,19.2C16.636,19.2 17.246,18.947 17.696,18.497C18.146,18.047 18.399,17.437 18.399,16.8L18.399,12C18.399,11.363 18.146,10.753 17.696,10.303C17.246,9.853 16.636,9.6 15.999,9.6ZM15.999,0C11.544,0 7.27,1.77 4.12,4.921C0.969,8.071 -0.801,12.344 -0.801,16.8L-0.801,31.2C-0.801,35.656 0.969,39.929 4.12,43.079C7.27,46.23 11.544,48 15.999,48C20.455,48 24.728,46.23 27.879,43.079C31.029,39.929 32.799,35.656 32.799,31.2L32.799,16.8C32.799,12.344 31.029,8.071 27.879,4.921C24.728,1.77 20.455,0 15.999,0L15.999,0ZM27.999,31.2C27.999,34.383 26.735,37.435 24.484,39.685C22.234,41.936 19.182,43.2 15.999,43.2C12.817,43.2 9.764,41.936 7.514,39.685C5.263,37.435 3.999,34.383 3.999,31.2L3.999,16.8C3.999,13.617 5.263,10.565 7.514,8.315C9.764,6.064 12.817,4.8 15.999,4.8C19.182,4.8 22.234,6.064 24.484,8.315C26.735,10.565 27.999,13.617 27.999,16.8L27.999,31.2Z" fill="#EDEDF5"/>
</svg>
