<svg width="42" height="42" viewBox="0 0 42 42" fill="none" xmlns="http://www.w3.org/2000/svg" xmlns:xlink="http://www.w3.org/1999/xlink">
<path d="M20,0C31.046,0 40,8.954 40,20C40,20.526 39.98,21.046 39.94,21.562C39.064,20.732 38.072,20.022 36.992,19.46C36.706,10.321 29.208,3 20,3C10.611,3 3,10.611 3,20C3,22.939 3.746,25.767 5.146,28.275L5.447,28.814L3.222,36.783L11.195,34.558L11.734,34.859C14.086,36.17 16.718,36.906 19.46,36.992C20.022,38.072 20.732,39.064 21.562,39.94C21.046,39.98 20.526,40 20,40C16.763,40 13.636,39.229 10.826,37.776L3.174,39.911C1.844,40.282 0.465,39.505 0.094,38.175C-0.029,37.735 -0.029,37.27 0.094,36.83L2.229,29.184C0.773,26.372 0,23.241 0,20C0,8.954 8.954,0 20,0ZM42,31C42,24.925 37.075,20 31,20C24.925,20 20,24.925 20,31C20,37.075 24.925,42 31,42C37.075,42 42,37.075 42,31ZM32.001,32L32.002,37.007C32.002,37.559 31.555,38.007 31.002,38.007C30.45,38.007 30.002,37.559 30.002,37.007L30.001,32L24.991,32C24.439,32 23.992,31.552 23.992,31C23.992,30.448 24.439,30 24.991,30L30.001,30L30,24.999C30,24.446 30.448,23.999 31,23.999C31.552,23.999 32,24.446 32,24.999L32.001,30L36.993,30C37.545,30 37.992,30.448 37.992,31C37.992,31.552 37.545,32 36.993,32L32.001,32Z" fill="#FFFFFF"/>
</svg>
