<svg width="32" height="32" viewBox="0 0 32 32" fill="none" xmlns="http://www.w3.org/2000/svg" xmlns:xlink="http://www.w3.org/1999/xlink">
<path d="M16,0C7.178,0 0,7.178 0,16C0,24.822 7.178,32 16,32C24.822,32 32,24.822 32,16C32,7.178 24.822,0 16,0ZM26.579,7.378C28.482,9.704 29.635,12.666 29.665,15.892C29.214,15.796 24.696,14.88 20.149,15.452C19.777,14.546 19.427,13.749 18.947,12.767C24,10.704 26.291,7.768 26.579,7.378L26.579,7.378ZM25.059,5.798C24.814,6.148 22.756,8.913 17.897,10.735C15.657,6.62 13.175,3.24 12.797,2.734C17.131,1.69 21.698,2.816 25.059,5.798L25.059,5.798ZM10.19,3.653C10.55,4.147 12.992,7.531 15.257,11.557C8.864,13.254 3.233,13.23 2.622,13.222C3.508,8.981 6.366,5.456 10.19,3.653ZM2.334,16.021C2.334,15.881 2.336,15.742 2.341,15.603C2.938,15.615 9.561,15.701 16.386,13.658C16.777,14.424 17.151,15.201 17.494,15.978C12.552,17.37 8.062,21.366 5.847,25.159C3.664,22.736 2.334,19.531 2.334,16.021ZM7.611,26.802C9.039,23.884 12.913,20.117 18.423,18.237C20.342,23.223 21.135,27.402 21.338,28.601C16.944,30.473 11.66,29.959 7.611,26.802L7.611,26.802ZM23.636,27.35C23.496,26.519 22.768,22.518 20.981,17.606C25.264,16.92 29.026,18.043 29.494,18.19C28.885,21.993 26.702,25.277 23.636,27.35Z" fill="#EDEDF5"/>
</svg>
