<svg width="32" height="32" viewBox="0 0 32 32" fill="none" xmlns="http://www.w3.org/2000/svg" xmlns:xlink="http://www.w3.org/1999/xlink">
<path d="M26.082,7.488L21.984,7.488L21.984,4.078C21.984,2.275 20.509,0.8 18.705,0.8L12.345,0.8C10.542,0.8 9.067,2.275 9.067,4.078L9.067,7.455L4.969,7.455C2.215,7.455 -0.047,9.717 -0.047,12.471L-0.047,25.584C-0.047,28.338 2.215,30.6 4.969,30.6L26.082,30.6C28.835,30.6 31.098,28.338 31.098,25.584L31.098,12.471C31.098,9.717 28.835,7.488 26.082,7.488ZM12.149,4.078C12.149,3.98 12.247,3.881 12.345,3.881L18.673,3.881C18.771,3.881 18.869,3.98 18.869,4.078L18.869,7.455L12.149,7.455L12.149,4.078ZM21.394,21.093L17.591,21.093L17.591,24.928L13.46,24.928L13.46,21.093L9.657,21.093L9.657,16.995L13.493,16.995L13.493,13.159L17.591,13.159L17.591,16.995L21.426,16.995L21.426,21.093L21.394,21.093Z" transform="rotate(0.577 15.525 15.7)" fill="#000000"/>
</svg>
