<svg width="32" height="22" viewBox="0 0 32 22" fill="none" xmlns="http://www.w3.org/2000/svg" xmlns:xlink="http://www.w3.org/1999/xlink">
<path d="M12.889,8.958C14.656,8.114 15.578,6.836 15.578,4.847C15.578,0.925 12.656,-0.031 9.283,-0.031L0,-0.031L0,19.658L9.544,19.658C13.122,19.658 16.483,17.941 16.483,13.941C16.483,11.469 15.311,9.641 12.889,8.958L12.889,8.958ZM4.328,3.33L8.389,3.33C9.95,3.33 11.356,3.769 11.356,5.58C11.356,7.253 10.261,7.925 8.717,7.925L4.328,7.925L4.328,3.33L4.328,3.33ZM8.956,16.314L4.328,16.314L4.328,10.891L9.044,10.891C10.95,10.891 12.156,11.686 12.156,13.703C12.156,15.691 10.717,16.314 8.956,16.314L8.956,16.314ZM28.872,2.941L20.889,2.941L20.889,1.003L28.872,1.003L28.872,2.941L28.872,2.941ZM32,12.736C32,8.519 29.533,5.003 25.061,5.003C20.717,5.003 17.767,8.269 17.767,12.547C17.767,16.986 20.561,20.03 25.061,20.03C28.467,20.03 30.672,18.497 31.733,15.236L28.278,15.236C27.906,16.453 26.372,17.097 25.183,17.097C22.889,17.097 21.683,15.753 21.683,13.469L31.967,13.469C31.983,13.236 32,12.986 32,12.736ZM21.689,11.003C21.817,9.13 23.061,7.958 24.939,7.958C26.906,7.958 27.894,9.114 28.061,11.003L21.689,11.003Z" fill="#EDEDF5"/>
</svg>
