<svg width="26" height="32" viewBox="0 0 26 32" fill="none" xmlns="http://www.w3.org/2000/svg" xmlns:xlink="http://www.w3.org/1999/xlink">
<path d="M25.229,17.822C25.229,25.51 19.782,30.674 13.018,30.79C15.434,30.717 17.358,29.477 17.358,25.91C17.358,22.229 12.781,17.459 12.781,17.459C12.781,17.459 8.204,22.229 8.204,25.91C8.204,29.477 10.127,30.717 12.544,30.79C5.78,30.674 0.333,25.51 0.333,17.822C0.333,15.085 1.873,12.165 3.873,9.531C3.255,12.331 5.431,15.015 7.474,15.068C7.88,10.428 7.88,7.458 12.781,0.79C16.418,8.291 24.932,9.051 25.229,17.822Z" transform="rotate(0.577 12.781 15.79)" fill="#000000"/>
</svg>
