<svg width="48" height="52" viewBox="0 0 48 52" fill="none" xmlns="http://www.w3.org/2000/svg" xmlns:xlink="http://www.w3.org/1999/xlink">
<path d="M21.789,0.254C10.613,0.254 0.285,7.208 2.227,23.754C1.881,24.03 1.547,24.326 1.289,24.692C0.283,26.112 -0.211,27.958 -0.211,29.942C-0.211,32.432 1.257,34.348 2.789,35.754C3.909,36.784 5.055,37.502 6.351,37.88C7.371,41.16 9.249,43.88 11.477,45.754C11.675,45.942 11.91,46.087 12.166,46.18C12.423,46.274 12.696,46.314 12.968,46.298C13.241,46.283 13.507,46.211 13.751,46.089C13.995,45.966 14.211,45.795 14.386,45.585C14.561,45.376 14.692,45.133 14.769,44.871C14.847,44.609 14.871,44.335 14.838,44.064C14.805,43.793 14.718,43.531 14.58,43.295C14.443,43.059 14.259,42.854 14.039,42.692C12.027,40.998 10.345,38.736 9.727,35.816C9.628,35.375 9.383,34.98 9.031,34.697C8.679,34.413 8.241,34.257 7.789,34.254C8.035,34.254 6.497,33.754 5.477,32.816C4.457,31.88 3.789,30.706 3.789,29.942C3.789,29.014 4.011,28.238 4.289,27.63C4.561,27.938 4.921,28.156 5.32,28.252C5.72,28.349 6.139,28.32 6.522,28.169C6.904,28.019 7.231,27.754 7.458,27.412C7.684,27.069 7.8,26.665 7.789,26.254L7.789,24.566C7.792,24.503 7.792,24.441 7.789,24.378C7.869,22.952 8.057,21.642 8.351,20.442C11.109,19.494 13.405,21.032 15.789,14.004C19.269,24.35 28.281,18.432 34.477,18.13C35.205,19.9 35.657,21.98 35.789,24.378C35.786,24.441 35.786,24.503 35.789,24.566L35.789,26.254C35.789,26.784 36,27.293 36.375,27.668C36.75,28.043 37.259,28.254 37.789,28.254L37.789,33.192C36.921,33.874 35.959,34.254 35.789,34.254C35.337,34.257 34.899,34.413 34.547,34.697C34.195,34.98 33.95,35.375 33.851,35.816C33.443,37.748 32.535,39.374 31.415,40.754C31.247,40.959 31.121,41.195 31.044,41.449C30.967,41.703 30.941,41.97 30.967,42.234C30.993,42.498 31.071,42.754 31.196,42.988C31.321,43.222 31.491,43.429 31.696,43.597C31.901,43.765 32.137,43.891 32.391,43.968C32.645,44.045 32.912,44.071 33.176,44.045C33.44,44.019 33.696,43.941 33.93,43.816C34.164,43.691 34.371,43.521 34.539,43.316C35.739,41.838 36.535,39.904 37.165,37.88C38.353,37.58 39.462,37.025 40.415,36.254L41.789,36.254C41.299,38.816 40.397,40.75 39.477,42.13C38.177,44.08 37.057,44.762 36.977,44.816C36.919,44.846 36.209,45.236 34.163,45.692C32.603,46.038 30.357,46.408 27.351,46.566C26.949,44.336 24.613,42.63 21.789,42.63C18.681,42.63 16.163,44.7 16.163,47.254C16.163,49.808 18.683,51.88 21.789,51.88C23.731,51.88 25.465,51.048 26.477,49.816C30.177,49.668 32.989,49.244 34.915,48.816C37.287,48.29 38.475,47.692 38.475,47.692C38.541,47.655 38.605,47.612 38.665,47.566C38.665,47.566 40.449,46.356 42.101,43.88C43.437,41.876 44.761,38.97 45.227,35.13C46.683,34.04 47.601,32.258 47.601,30.254L47.601,26.254C47.601,22.94 45.101,20.254 41.789,20.254L41.477,20.254C41.485,6.258 32.137,0.254 21.789,0.254ZM39.101,20.004C39.161,20.088 39.231,20.164 39.289,20.254L39.101,20.254C39.085,20.172 39.119,20.086 39.101,20.004ZM13.789,24.254C12.728,24.254 11.711,24.675 10.961,25.426C10.21,26.176 9.789,27.193 9.789,28.254C9.789,29.315 10.21,30.332 10.961,31.082C11.711,31.833 12.728,32.254 13.789,32.254C14.85,32.254 15.867,31.833 16.617,31.082C17.368,30.332 17.789,29.315 17.789,28.254C17.789,27.193 17.368,26.176 16.617,25.426C15.867,24.675 14.85,24.254 13.789,24.254ZM29.789,24.254C28.728,24.254 27.711,24.675 26.961,25.426C26.21,26.176 25.789,27.193 25.789,28.254C25.789,29.315 26.21,30.332 26.961,31.082C27.711,31.833 28.728,32.254 29.789,32.254C30.85,32.254 31.867,31.833 32.617,31.082C33.368,30.332 33.789,29.315 33.789,28.254C33.789,27.193 33.368,26.176 32.617,25.426C31.867,24.675 30.85,24.254 29.789,24.254Z" fill="#000000"/>
</svg>
