<svg width="48" height="52" viewBox="0 0 48 52" fill="none" xmlns="http://www.w3.org/2000/svg" xmlns:xlink="http://www.w3.org/1999/xlink">
<path d="M22,0C10.824,0 0.496,6.954 2.438,23.5C2.092,23.776 1.758,24.072 1.5,24.438C0.494,25.858 0,27.704 0,29.688C0,32.178 1.468,34.094 3,35.5C4.12,36.53 5.266,37.248 6.562,37.626C7.582,40.906 9.46,43.626 11.688,45.5C11.886,45.688 12.121,45.833 12.377,45.926C12.634,46.02 12.907,46.06 13.179,46.044C13.452,46.029 13.718,45.957 13.962,45.835C14.206,45.712 14.422,45.541 14.597,45.331C14.772,45.122 14.903,44.879 14.98,44.617C15.058,44.355 15.081,44.081 15.049,43.81C15.016,43.539 14.929,43.277 14.791,43.041C14.654,42.805 14.47,42.6 14.25,42.438C12.238,40.744 10.556,38.482 9.938,35.562C9.839,35.121 9.594,34.726 9.242,34.443C8.89,34.159 8.452,34.003 8,34C8.246,34 6.708,33.5 5.688,32.562C4.668,31.626 4,30.452 4,29.688C4,28.76 4.222,27.984 4.5,27.376C4.772,27.684 5.132,27.902 5.531,27.998C5.931,28.095 6.35,28.066 6.732,27.915C7.115,27.765 7.442,27.5 7.669,27.158C7.895,26.815 8.011,26.411 8,26L8,24.312C8.003,24.249 8.003,24.187 8,24.124C8.08,22.698 8.268,21.388 8.562,20.188C11.32,19.24 13.616,20.778 16,13.75C19.48,24.096 28.492,18.178 34.688,17.876C35.416,19.646 35.868,21.726 36,24.124C35.997,24.187 35.997,24.249 36,24.312L36,26C36,26.53 36.211,27.039 36.586,27.414C36.961,27.789 37.47,28 38,28L38,32.938C37.132,33.62 36.17,34 36,34C35.548,34.003 35.11,34.159 34.758,34.443C34.406,34.726 34.161,35.121 34.062,35.562C33.654,37.494 32.746,39.12 31.626,40.5C31.458,40.705 31.332,40.941 31.255,41.195C31.178,41.449 31.152,41.716 31.178,41.98C31.204,42.244 31.282,42.5 31.407,42.734C31.532,42.968 31.702,43.175 31.907,43.343C32.112,43.511 32.348,43.637 32.602,43.714C32.856,43.791 33.123,43.817 33.387,43.791C33.651,43.765 33.907,43.687 34.141,43.562C34.375,43.437 34.582,43.267 34.75,43.062C35.95,41.584 36.746,39.65 37.376,37.626C38.564,37.326 39.673,36.771 40.626,36L42,36C41.51,38.562 40.608,40.496 39.688,41.876C38.388,43.826 37.268,44.508 37.188,44.562C37.13,44.592 36.42,44.982 34.374,45.438C32.814,45.784 30.568,46.154 27.562,46.312C27.16,44.082 24.824,42.376 22,42.376C18.892,42.376 16.374,44.446 16.374,47C16.374,49.554 18.894,51.626 22,51.626C23.942,51.626 25.676,50.794 26.688,49.562C30.388,49.414 33.2,48.99 35.126,48.562C37.498,48.036 38.686,47.438 38.686,47.438C38.752,47.401 38.816,47.358 38.876,47.312C38.876,47.312 40.66,46.102 42.312,43.626C43.648,41.622 44.972,38.716 45.438,34.876C46.894,33.786 47.812,32.004 47.812,30L47.812,26C47.812,22.686 45.312,20 42,20L41.688,20C41.696,6.004 32.348,0 22,0ZM39.312,19.75C39.372,19.834 39.442,19.91 39.5,20L39.312,20C39.296,19.918 39.33,19.832 39.312,19.75ZM14,24C12.939,24 11.922,24.421 11.172,25.172C10.421,25.922 10,26.939 10,28C10,29.061 10.421,30.078 11.172,30.828C11.922,31.579 12.939,32 14,32C15.061,32 16.078,31.579 16.828,30.828C17.579,30.078 18,29.061 18,28C18,26.939 17.579,25.922 16.828,25.172C16.078,24.421 15.061,24 14,24ZM30,24C28.939,24 27.922,24.421 27.172,25.172C26.421,25.922 26,26.939 26,28C26,29.061 26.421,30.078 27.172,30.828C27.922,31.579 28.939,32 30,32C31.061,32 32.078,31.579 32.828,30.828C33.579,30.078 34,29.061 34,28C34,26.939 33.579,25.922 32.828,25.172C32.078,24.421 31.061,24 30,24Z" fill="#000000"/>
</svg>
