<svg width="28" height="32" viewBox="0 0 28 32" fill="none" xmlns="http://www.w3.org/2000/svg" xmlns:xlink="http://www.w3.org/1999/xlink">
<path d="M27.094,24.266L23.072,24.044L25.827,4C25.954,3.018 25.289,2.132 24.307,1.973L11.007,0.137C10.026,0.01 9.139,0.675 8.981,1.657L5.909,24.012L1.571,24.266C1.128,24.297 0.78,24.646 0.78,25.089L0.78,29.364C0.78,29.839 1.16,30.187 1.603,30.187L12.907,30.187L16.327,26.577C16.391,26.514 16.391,26.419 16.359,26.356L14.712,22.714C14.681,22.651 14.681,22.556 14.744,22.492L17.816,19.642C17.847,19.611 17.879,19.548 17.879,19.484L17.594,16.951C17.562,16.729 17.847,16.634 17.974,16.824L19.684,19.611C19.715,19.674 19.715,19.769 19.684,19.832L17.721,22.841C17.689,22.904 17.689,22.967 17.721,23.031L19.937,27.559C19.969,27.622 19.969,27.717 19.905,27.749L18.132,30.219L27.03,30.219C27.505,30.219 27.854,29.839 27.854,29.395L27.854,25.121C27.885,24.677 27.537,24.297 27.094,24.266ZM13.477,19.168C13.446,19.453 13.192,19.642 12.907,19.579L10.754,19.294C10.469,19.263 10.279,19.009 10.343,18.724L10.628,16.539C10.659,16.254 10.913,16.064 11.197,16.128L13.382,16.413C13.667,16.444 13.857,16.698 13.794,16.983L13.477,19.168ZM14.301,13.214C14.269,13.499 14.016,13.689 13.731,13.626L11.546,13.341C11.261,13.309 11.071,13.056 11.134,12.771L11.419,10.586C11.451,10.301 11.704,10.111 11.989,10.175L14.174,10.46C14.459,10.491 14.649,10.745 14.586,11.03L14.301,13.214ZM15.124,7.293C15.092,7.578 14.839,7.768 14.554,7.705L12.369,7.42C12.084,7.388 11.894,7.135 11.957,6.85L12.242,4.665C12.274,4.38 12.527,4.19 12.812,4.253L14.997,4.538C15.282,4.57 15.472,4.823 15.409,5.108L15.124,7.293ZM20.76,14.101C20.729,14.386 20.475,14.576 20.19,14.513L18.037,14.228C17.752,14.196 17.562,13.943 17.626,13.658L17.911,11.473C17.942,11.188 18.196,10.998 18.481,11.061L20.665,11.346C20.95,11.378 21.14,11.631 21.077,11.916L20.76,14.101ZM21.584,8.18C21.552,8.465 21.299,8.655 21.014,8.591L18.829,8.306C18.544,8.275 18.354,8.021 18.417,7.736L18.702,5.551C18.734,5.266 18.987,5.076 19.272,5.14L21.457,5.425C21.742,5.456 21.932,5.71 21.869,5.995L21.584,8.18Z" transform="rotate(0.577 14.318 15.17)" fill="#000000"/>
</svg>
