<svg width="34" height="34" viewBox="0 0 34 34" fill="none" xmlns="http://www.w3.org/2000/svg" xmlns:xlink="http://www.w3.org/1999/xlink">
<path d="M5.489,15.998L-0.169,1.448C-0.563,0.437 0.424,-0.532 1.401,-0.187L1.556,-0.122L31.556,14.878C31.749,14.975 31.914,15.12 32.035,15.3C32.156,15.479 32.227,15.687 32.244,15.902C32.26,16.118 32.22,16.334 32.128,16.53C32.036,16.725 31.894,16.894 31.717,17.018L31.556,17.115L1.556,32.115C0.584,32.6 -0.473,31.707 -0.219,30.702L-0.169,30.543L5.489,15.998ZM3.336,3.565L7.686,14.748L18.731,14.748C19.033,14.748 19.325,14.858 19.552,15.056C19.78,15.255 19.928,15.529 19.969,15.828L19.981,15.998C19.981,16.301 19.871,16.593 19.672,16.82C19.473,17.048 19.199,17.196 18.899,17.237L18.731,17.248L7.682,17.248L3.334,28.432L28.202,15.998L3.336,3.565Z" fill="#111111"/>
</svg>
