<svg width="26" height="38" viewBox="0 0 26 38" fill="none" xmlns="http://www.w3.org/2000/svg" xmlns:xlink="http://www.w3.org/1999/xlink">
<path d="M23.46,16.168C24.156,16.168 24.731,16.685 24.822,17.356L24.835,17.543L24.835,18.46C24.835,24.985 19.784,30.331 13.378,30.801L13.376,34.96C13.376,35.719 12.761,36.335 12.001,36.335C11.305,36.335 10.73,35.817 10.639,35.146L10.626,34.96L10.626,30.801C4.362,30.343 -0.607,25.221 -0.825,18.893L-0.832,18.46L-0.832,17.543C-0.832,16.784 -0.216,16.168 0.543,16.168C1.239,16.168 1.814,16.685 1.905,17.356L1.918,17.543L1.918,18.46C1.918,23.643 6.014,27.869 11.146,28.077L11.543,28.085L12.46,28.085C17.642,28.085 21.869,23.988 22.077,18.856L22.085,18.46L22.085,17.543C22.085,16.784 22.7,16.168 23.46,16.168ZM12.001,-0.332C16.051,-0.332 19.335,2.951 19.335,7.001L19.335,18.001C19.335,22.051 16.051,25.335 12.001,25.335C7.951,25.335 4.668,22.051 4.668,18.001L4.668,7.001C4.668,2.951 7.951,-0.332 12.001,-0.332ZM12.001,2.418C9.47,2.418 7.418,4.47 7.418,7.001L7.418,18.001C7.418,20.533 9.47,22.585 12.001,22.585C14.533,22.585 16.585,20.533 16.585,18.001L16.585,7.001C16.585,4.47 14.533,2.418 12.001,2.418Z" fill="#111111"/>
</svg>
