<svg width="48" height="54" viewBox="0 0 48 54" fill="none" xmlns="http://www.w3.org/2000/svg" xmlns:xlink="http://www.w3.org/1999/xlink">
<path d="M21.02,0.967C9.844,0.967 -0.484,7.921 1.458,24.467C1.112,24.743 0.778,25.039 0.52,25.405C-0.486,26.825 -0.98,28.671 -0.98,30.655C-0.98,33.145 0.488,35.061 2.02,36.467C3.14,37.497 4.286,38.215 5.582,38.593C6.602,41.873 8.48,44.593 10.708,46.467C10.906,46.655 11.141,46.8 11.397,46.894C11.654,46.988 11.927,47.028 12.199,47.012C12.472,46.996 12.738,46.925 12.982,46.802C13.226,46.679 13.442,46.508 13.617,46.299C13.792,46.089 13.923,45.846 14.001,45.585C14.078,45.323 14.102,45.048 14.069,44.777C14.037,44.506 13.949,44.244 13.812,44.009C13.674,43.773 13.49,43.567 13.27,43.405C11.258,41.711 9.576,39.449 8.958,36.529C8.859,36.088 8.614,35.694 8.262,35.41C7.91,35.127 7.472,34.97 7.02,34.967C7.266,34.967 5.728,34.467 4.708,33.529C3.688,32.593 3.02,31.419 3.02,30.655C3.02,29.727 3.242,28.951 3.52,28.343C3.792,28.652 4.152,28.869 4.551,28.965C4.951,29.062 5.37,29.033 5.753,28.883C6.135,28.732 6.462,28.468 6.689,28.125C6.916,27.782 7.031,27.378 7.02,26.967L7.02,25.279C7.023,25.217 7.023,25.154 7.02,25.091C7.1,23.665 7.288,22.355 7.582,21.155C10.34,20.207 12.636,21.745 15.02,14.717C18.5,25.063 27.512,19.145 33.708,18.843C34.436,20.613 34.888,22.693 35.02,25.091C35.017,25.154 35.017,25.217 35.02,25.279L35.02,26.967C35.02,27.498 35.231,28.007 35.606,28.382C35.981,28.757 36.49,28.967 37.02,28.967L37.02,33.905C36.152,34.587 35.19,34.967 35.02,34.967C34.568,34.97 34.131,35.127 33.779,35.41C33.427,35.694 33.181,36.088 33.082,36.529C32.674,38.461 31.766,40.087 30.646,41.467C30.478,41.673 30.352,41.909 30.275,42.163C30.198,42.417 30.172,42.683 30.198,42.947C30.224,43.211 30.302,43.467 30.427,43.701C30.552,43.935 30.722,44.142 30.927,44.31C31.132,44.479 31.369,44.605 31.622,44.682C31.876,44.759 32.143,44.785 32.407,44.759C32.671,44.733 32.927,44.655 33.161,44.53C33.395,44.405 33.602,44.235 33.77,44.029C34.97,42.551 35.766,40.617 36.396,38.593C37.585,38.293 38.694,37.739 39.646,36.967L41.02,36.967C40.53,39.529 39.628,41.463 38.708,42.843C37.408,44.793 36.288,45.475 36.208,45.529C36.15,45.559 35.44,45.949 33.394,46.405C31.834,46.751 29.588,47.121 26.582,47.279C26.18,45.049 23.844,43.343 21.02,43.343C17.912,43.343 15.394,45.413 15.394,47.967C15.394,50.521 17.914,52.593 21.02,52.593C22.962,52.593 24.696,51.761 25.708,50.529C29.408,50.381 32.22,49.957 34.146,49.529C36.518,49.003 37.706,48.405 37.706,48.405C37.772,48.368 37.836,48.326 37.896,48.279C37.896,48.279 39.68,47.069 41.332,44.593C42.668,42.589 43.992,39.683 44.458,35.843C45.914,34.753 46.832,32.971 46.832,30.967L46.832,26.967C46.832,23.653 44.332,20.967 41.02,20.967L40.708,20.967C40.716,6.971 31.368,0.967 21.02,0.967ZM38.332,20.717C38.392,20.801 38.462,20.877 38.52,20.967L38.332,20.967C38.316,20.885 38.35,20.799 38.332,20.717ZM13.02,24.967C11.959,24.967 10.942,25.389 10.192,26.139C9.442,26.889 9.02,27.907 9.02,28.967C9.02,30.028 9.442,31.046 10.192,31.796C10.942,32.546 11.959,32.967 13.02,32.967C14.081,32.967 15.098,32.546 15.849,31.796C16.599,31.046 17.02,30.028 17.02,28.967C17.02,27.907 16.599,26.889 15.849,26.139C15.098,25.389 14.081,24.967 13.02,24.967ZM29.02,24.967C27.959,24.967 26.942,25.389 26.192,26.139C25.442,26.889 25.02,27.907 25.02,28.967C25.02,30.028 25.442,31.046 26.192,31.796C26.942,32.546 27.959,32.967 29.02,32.967C30.081,32.967 31.098,32.546 31.849,31.796C32.599,31.046 33.02,30.028 33.02,28.967C33.02,27.907 32.599,26.889 31.849,26.139C31.098,25.389 30.081,24.967 29.02,24.967Z" transform="rotate(0.577 22.926 26.78)" fill="#000000"/>
</svg>
