<svg width="64" height="68" viewBox="0 0 64 68" fill="none" xmlns="http://www.w3.org/2000/svg" xmlns:xlink="http://www.w3.org/1999/xlink">
<path d="M29.055,-0.239C14.263,-0.239 0.592,8.76 3.163,30.174C2.705,30.531 2.263,30.914 1.921,31.388C0.59,33.226 -0.064,35.615 -0.064,38.182C-0.064,41.405 1.879,43.884 3.907,45.704C5.389,47.037 6.906,47.966 8.621,48.456C9.971,52.7 12.457,56.221 15.406,58.646C15.668,58.889 15.979,59.077 16.318,59.198C16.658,59.319 17.019,59.371 17.38,59.351C17.74,59.33 18.093,59.238 18.416,59.079C18.739,58.92 19.025,58.698 19.257,58.427C19.488,58.157 19.661,57.842 19.764,57.503C19.867,57.165 19.898,56.809 19.855,56.458C19.812,56.107 19.696,55.769 19.514,55.464C19.332,55.158 19.088,54.893 18.797,54.683C16.134,52.491 13.908,49.563 13.09,45.784C12.959,45.214 12.634,44.703 12.168,44.336C11.702,43.969 11.123,43.767 10.525,43.763C10.85,43.763 8.814,43.116 7.464,41.902C6.114,40.69 5.23,39.171 5.23,38.182C5.23,36.981 5.524,35.977 5.892,35.19C6.251,35.589 6.728,35.87 7.257,35.995C7.785,36.12 8.341,36.083 8.847,35.888C9.353,35.693 9.786,35.351 10.086,34.908C10.386,34.464 10.539,33.941 10.525,33.409L10.525,31.225C10.529,31.144 10.529,31.063 10.525,30.981C10.631,29.136 10.879,27.441 11.268,25.888C14.919,24.661 17.958,26.651 21.113,17.556C25.72,30.945 37.648,23.286 45.849,22.895C46.813,25.186 47.411,27.878 47.586,30.981C47.582,31.063 47.582,31.144 47.586,31.225L47.586,33.409C47.586,34.096 47.865,34.754 48.361,35.24C48.858,35.725 49.531,35.998 50.233,35.998L50.233,42.388C49.084,43.271 47.811,43.763 47.586,43.763C46.988,43.767 46.408,43.969 45.942,44.336C45.477,44.703 45.152,45.214 45.021,45.784C44.481,48.285 43.279,50.389 41.796,52.175C41.574,52.44 41.407,52.746 41.305,53.075C41.203,53.403 41.168,53.748 41.203,54.09C41.237,54.432 41.341,54.763 41.506,55.066C41.672,55.369 41.897,55.637 42.168,55.854C42.44,56.072 42.752,56.235 43.089,56.335C43.425,56.434 43.777,56.468 44.127,56.435C44.476,56.401 44.815,56.3 45.125,56.138C45.435,55.976 45.709,55.756 45.931,55.491C47.52,53.578 48.573,51.075 49.407,48.456C50.98,48.067 52.448,47.349 53.709,46.351L55.528,46.351C54.879,49.667 53.685,52.17 52.467,53.956C50.747,56.479 49.264,57.362 49.158,57.432C49.082,57.471 48.142,57.976 45.434,58.566C43.369,59.013 40.396,59.492 36.417,59.697C35.885,56.811 32.793,54.603 29.055,54.603C24.941,54.603 21.609,57.282 21.609,60.587C21.609,63.893 24.944,66.574 29.055,66.574C31.626,66.574 33.921,65.497 35.26,63.903C40.158,63.711 43.88,63.163 46.429,62.609C49.569,61.928 51.141,61.154 51.141,61.154C51.229,61.106 51.313,61.051 51.393,60.991C51.393,60.991 53.754,59.425 55.941,56.221C57.709,53.627 59.461,49.866 60.078,44.897C62.005,43.486 63.22,41.18 63.22,38.586L63.22,33.409C63.22,29.12 59.911,25.644 55.528,25.644L55.115,25.644C55.125,7.531 42.752,-0.239 29.055,-0.239ZM51.97,25.321C52.049,25.429 52.142,25.528 52.219,25.644L51.97,25.644C51.948,25.538 51.993,25.427 51.97,25.321ZM18.466,30.821C17.062,30.821 15.715,31.366 14.723,32.337C13.73,33.308 13.172,34.625 13.172,35.998C13.172,37.371 13.73,38.687 14.723,39.658C15.715,40.629 17.062,41.174 18.466,41.174C19.87,41.174 21.217,40.629 22.21,39.658C23.203,38.687 23.761,37.371 23.761,35.998C23.761,34.625 23.203,33.308 22.21,32.337C21.217,31.366 19.87,30.821 18.466,30.821ZM39.644,30.821C38.24,30.821 36.893,31.366 35.9,32.337C34.907,33.308 34.35,34.625 34.35,35.998C34.35,37.371 34.907,38.687 35.9,39.658C36.893,40.629 38.24,41.174 39.644,41.174C41.048,41.174 42.395,40.629 43.388,39.658C44.381,38.687 44.939,37.371 44.939,35.998C44.939,34.625 44.381,33.308 43.388,32.337C42.395,31.366 41.048,30.821 39.644,30.821Z" fill="#000000"/>
</svg>
