<svg width="36" height="36" viewBox="0 0 36 36" fill="none" xmlns="http://www.w3.org/2000/svg" xmlns:xlink="http://www.w3.org/1999/xlink">
<path d="M29.251,4.668C32.243,4.668 34.668,7.093 34.668,10.085L34.668,29.251C34.668,32.243 32.243,34.668 29.251,34.668L10.085,34.668C7.093,34.668 4.668,32.243 4.668,29.251L4.668,18.838C5.458,19.167 6.296,19.406 7.168,19.541L7.168,29.251C7.168,29.599 7.229,29.932 7.34,30.241L17.044,20.74C18.433,19.38 20.614,19.315 22.078,20.546L22.292,20.74L31.995,30.242C32.107,29.933 32.168,29.599 32.168,29.251L32.168,10.085C32.168,8.474 30.862,7.168 29.251,7.168L19.541,7.168C19.406,6.296 19.167,5.458 18.838,4.668L29.251,4.668ZM18.933,22.408L18.793,22.526L9.115,32.003C9.419,32.11 9.745,32.168 10.085,32.168L29.251,32.168C29.59,32.168 29.916,32.11 30.219,32.004L20.543,22.526C20.101,22.093 19.418,22.054 18.933,22.408ZM25.088,10.501C27.161,10.501 28.842,12.182 28.842,14.255C28.842,16.328 27.161,18.008 25.088,18.008C23.015,18.008 21.335,16.328 21.335,14.255C21.335,12.182 23.015,10.501 25.088,10.501ZM8.835,-0.332C13.897,-0.332 18.001,3.772 18.001,8.835C18.001,13.897 13.897,18.001 8.835,18.001C3.772,18.001 -0.332,13.897 -0.332,8.835C-0.332,3.772 3.772,-0.332 8.835,-0.332ZM25.088,13.001C24.396,13.001 23.835,13.563 23.835,14.255C23.835,14.947 24.396,15.508 25.088,15.508C25.78,15.508 26.342,14.947 26.342,14.255C26.342,13.563 25.78,13.001 25.088,13.001ZM8.835,3L8.685,3.013C8.345,3.075 8.076,3.343 8.015,3.684L8.001,3.833L8.001,8L3.831,8.001L3.681,8.015C3.341,8.076 3.073,8.345 3.011,8.685L2.997,8.835L3.011,8.984C3.073,9.325 3.341,9.593 3.681,9.655L3.831,9.668L8.002,9.667L8.003,13.84L8.017,13.99C8.078,14.33 8.347,14.599 8.687,14.66L8.836,14.674L8.986,14.66C9.326,14.599 9.595,14.33 9.656,13.99L9.67,13.84L9.669,9.667L13.842,9.668L13.992,9.655C14.332,9.593 14.6,9.325 14.662,8.984L14.676,8.835L14.662,8.685C14.6,8.345 14.332,8.076 13.992,8.015L13.842,8.001L9.667,8L9.668,3.833L9.655,3.684C9.593,3.343 9.325,3.075 8.984,3.013L8.835,3Z" fill="#111111"/>
</svg>
