<svg width="32" height="26" viewBox="0 0 32 26" fill="none" xmlns="http://www.w3.org/2000/svg" xmlns:xlink="http://www.w3.org/1999/xlink">
<path d="M3.791,4.485C3.83,4.094 3.678,3.704 3.387,3.439L0.404,-0.159L0.404,-0.695L9.679,-0.695L16.85,15.03L23.155,-0.695L32,-0.695L32,-0.159L29.446,2.288C29.228,2.454 29.116,2.732 29.162,3.003L29.162,20.997C29.116,21.269 29.228,21.546 29.446,21.712L31.94,24.16L31.94,24.696L19.391,24.696L19.391,24.16L21.977,21.652C22.229,21.401 22.229,21.322 22.229,20.938L22.229,6.397L15.037,24.649L14.065,24.649L5.703,6.397L5.703,18.629C5.63,19.145 5.802,19.661 6.166,20.031L9.527,24.107L9.527,24.643L0,24.643L0,24.113L3.361,20.031C3.718,19.661 3.883,19.138 3.791,18.629L3.791,4.485Z" fill="#EDEDF5"/>
</svg>
