<svg width="28" height="32" viewBox="0 0 28 32" fill="none" xmlns="http://www.w3.org/2000/svg" xmlns:xlink="http://www.w3.org/1999/xlink">
<path d="M26.103,24.939L22.081,24.717L24.836,4.673C24.963,3.691 24.298,2.805 23.316,2.646L10.017,0.81C9.035,0.683 8.149,1.348 7.99,2.33L4.919,24.685L0.581,24.939C0.137,24.97 -0.211,25.319 -0.211,25.762L-0.211,30.037C-0.211,30.512 0.169,30.86 0.612,30.86L11.917,30.86L15.337,27.25C15.4,27.187 15.4,27.092 15.368,27.029L13.722,23.387C13.69,23.324 13.69,23.229 13.754,23.165L16.825,20.316C16.857,20.284 16.888,20.221 16.888,20.157L16.603,17.624C16.572,17.402 16.857,17.307 16.983,17.497L18.693,20.284C18.725,20.347 18.725,20.442 18.693,20.506L16.73,23.514C16.698,23.577 16.698,23.64 16.73,23.704L18.947,28.232C18.978,28.295 18.978,28.39 18.915,28.422L17.142,30.892L26.04,30.892C26.515,30.892 26.863,30.512 26.863,30.068L26.863,25.794C26.895,25.35 26.546,24.97 26.103,24.939ZM12.487,19.841C12.455,20.126 12.202,20.316 11.917,20.252L9.764,19.967C9.479,19.936 9.289,19.682 9.352,19.397L9.637,17.212C9.669,16.927 9.922,16.737 10.207,16.801L12.392,17.086C12.677,17.117 12.867,17.371 12.804,17.656L12.487,19.841ZM13.31,13.888C13.279,14.173 13.025,14.362 12.74,14.299L10.555,14.014C10.27,13.983 10.08,13.729 10.144,13.444L10.429,11.259C10.46,10.974 10.714,10.784 10.999,10.848L13.184,11.133C13.469,11.164 13.659,11.418 13.595,11.703L13.31,13.888ZM14.134,7.966C14.102,8.251 13.849,8.441 13.564,8.378L11.379,8.093C11.094,8.061 10.904,7.808 10.967,7.523L11.252,5.338C11.284,5.053 11.537,4.863 11.822,4.926L14.007,5.211C14.292,5.243 14.482,5.496 14.419,5.781L14.134,7.966ZM19.77,14.774C19.738,15.059 19.485,15.249 19.2,15.186L17.047,14.901C16.762,14.869 16.572,14.616 16.635,14.331L16.92,12.146C16.952,11.861 17.205,11.671 17.49,11.734L19.675,12.019C19.96,12.051 20.15,12.304 20.087,12.589L19.77,14.774ZM20.593,8.853C20.562,9.138 20.308,9.328 20.023,9.264L17.838,8.979C17.553,8.948 17.363,8.694 17.427,8.409L17.712,6.224C17.743,5.939 17.997,5.75 18.282,5.813L20.467,6.098C20.752,6.129 20.941,6.383 20.878,6.668L20.593,8.853Z" transform="rotate(0.577 13.327 15.843)" fill="#000000"/>
</svg>
